<svg xmlns="http://www.w3.org/2000/svg" xmlns:xlink="http://www.w3.org/1999/xlink" viewBox="0 0 1538.41 1542.75"><defs><style>.cls-1{fill:url(#Безымянный_градиент_44);}.cls-2{fill:url(#Безымянный_градиент_24);}.cls-3{fill:#ef2c54;}.cls-4{opacity:0.13;}.cls-5{opacity:0.05;}.cls-6{fill:url(#Безымянный_градиент_15);}.cls-7{fill:url(#Безымянный_градиент_15-2);}.cls-8{fill:url(#Безымянный_градиент_24-2);}.cls-9{fill:url(#Безымянный_градиент_24-3);}.cls-10{fill:url(#Безымянный_градиент_15-3);}.cls-11{fill:url(#Безымянный_градиент_15-4);}.cls-12{fill:url(#Безымянный_градиент_15-5);}.cls-13{fill:url(#Безымянный_градиент_15-6);}.cls-14{fill:url(#Безымянный_градиент_15-7);}.cls-15{fill:url(#Безымянный_градиент_15-8);}.cls-16,.cls-21,.cls-25,.cls-28{fill:#fff;}.cls-16{opacity:0.06;}.cls-17{fill:url(#Безымянный_градиент_24-4);}.cls-18{fill:url(#Безымянный_градиент_24-5);}.cls-19{fill:url(#Безымянный_градиент_15-9);}.cls-20{opacity:0.49;}.cls-21{opacity:0.09;}.cls-22{fill:#998f8f;}.cls-23{fill:#3d3d3d;}.cls-24{fill:#eee;}.cls-26{fill:url(#Безымянный_градиент_78);}.cls-27{stroke:#000;stroke-miterlimit:10;}.cls-28{opacity:0.53;}.cls-29{fill:url(#Безымянный_градиент_15-10);}</style><linearGradient id="Безымянный_градиент_44" x1="948.47" y1="733.07" x2="1274.35" y2="1058.96" gradientTransform="translate(247.04 -114.49) rotate(11.57)" gradientUnits="userSpaceOnUse"><stop offset="0" stop-color="#9bab48"/><stop offset="0.14" stop-color="#b3874b"/><stop offset="0.3" stop-color="#c9664f"/><stop offset="0.46" stop-color="#d94d51"/><stop offset="0.63" stop-color="#e63a53"/><stop offset="0.8" stop-color="#ed3054"/><stop offset="1" stop-color="#ef2c54"/></linearGradient><linearGradient id="Безымянный_градиент_24" x1="25.48" y1="1202.97" x2="446.84" y2="1202.97" gradientTransform="translate(247.04 -114.49) rotate(11.57)" gradientUnits="userSpaceOnUse"><stop offset="0" stop-color="#9bab48"/><stop offset="0.06" stop-color="#a09d48"/><stop offset="0.27" stop-color="#b17348"/><stop offset="0.48" stop-color="#bf5149"/><stop offset="0.67" stop-color="#c83949"/><stop offset="0.85" stop-color="#ce2b49"/><stop offset="1" stop-color="#d02649"/></linearGradient><linearGradient id="Безымянный_градиент_15" x1="1016.47" y1="1082.83" x2="1205.84" y2="1082.83" gradientTransform="matrix(0.97, 0.26, -0.26, 0.97, 346.02, -106.72)" gradientUnits="userSpaceOnUse"><stop offset="0" stop-color="#9bab48"/><stop offset="0.04" stop-color="#a0a349"/><stop offset="0.25" stop-color="#bc794d"/><stop offset="0.46" stop-color="#d25750"/><stop offset="0.66" stop-color="#e23f52"/><stop offset="0.84" stop-color="#ec3154"/><stop offset="1" stop-color="#ef2c54"/></linearGradient><linearGradient id="Безымянный_градиент_15-2" x1="654.66" y1="826.89" x2="1183.22" y2="826.89" gradientTransform="translate(247.04 -114.49) rotate(11.57)" xlink:href="#Безымянный_градиент_15"/><linearGradient id="Безымянный_градиент_24-2" x1="814.47" y1="1400.8" x2="1242.26" y2="1400.8" xlink:href="#Безымянный_градиент_24"/><linearGradient id="Безымянный_градиент_24-3" x1="103.84" y1="1320.99" x2="548.29" y2="1320.99" xlink:href="#Безымянный_градиент_24"/><linearGradient id="Безымянный_градиент_15-3" x1="153.87" y1="1187.27" x2="466.98" y2="1187.27" gradientTransform="translate(247.04 -114.49) rotate(11.57)" xlink:href="#Безымянный_градиент_15"/><linearGradient id="Безымянный_градиент_15-4" x1="178.38" y1="1127.12" x2="427.99" y2="1127.12" gradientTransform="translate(247.04 -114.49) rotate(11.57)" xlink:href="#Безымянный_градиент_15"/><linearGradient id="Безымянный_градиент_15-5" x1="78.22" y1="1084.91" x2="426.88" y2="1084.91" gradientTransform="translate(247.04 -114.49) rotate(11.57)" xlink:href="#Безымянный_градиент_15"/><linearGradient id="Безымянный_градиент_15-6" x1="336.81" y1="885.2" x2="787.78" y2="885.2" gradientTransform="translate(247.04 -114.49) rotate(11.57)" xlink:href="#Безымянный_градиент_15"/><linearGradient id="Безымянный_градиент_15-7" x1="444.54" y1="1163.88" x2="843.48" y2="1163.88" gradientTransform="translate(247.04 -114.49) rotate(11.57)" xlink:href="#Безымянный_градиент_15"/><linearGradient id="Безымянный_градиент_15-8" x1="114.97" y1="1000.71" x2="608.44" y2="1000.71" gradientTransform="translate(247.04 -114.49) rotate(11.57)" xlink:href="#Безымянный_градиент_15"/><linearGradient id="Безымянный_градиент_24-4" x1="345.05" y1="1398.29" x2="920.34" y2="1398.29" xlink:href="#Безымянный_градиент_24"/><linearGradient id="Безымянный_градиент_24-5" x1="657.46" y1="1392.25" x2="1086.31" y2="1392.25" xlink:href="#Безымянный_градиент_24"/><linearGradient id="Безымянный_градиент_15-9" x1="614.61" y1="744.64" x2="1038.71" y2="989.49" gradientTransform="translate(247.04 -114.49) rotate(11.57)" xlink:href="#Безымянный_градиент_15"/><linearGradient id="Безымянный_градиент_78" x1="497.86" y1="36.48" x2="497.86" y2="77.2" gradientUnits="userSpaceOnUse"><stop offset="0" stop-color="#ff7bac"/><stop offset="0.03" stop-color="#fe74a5"/><stop offset="0.19" stop-color="#f85a87"/><stop offset="0.35" stop-color="#f44671"/><stop offset="0.53" stop-color="#f13761"/><stop offset="0.73" stop-color="#f02f57"/><stop offset="1" stop-color="#ef2c54"/></linearGradient><linearGradient id="Безымянный_градиент_15-10" x1="614.61" y1="744.63" x2="1038.71" y2="989.49" gradientTransform="translate(245 -113.27) rotate(11.46)" xlink:href="#Безымянный_градиент_15"/></defs><title>Dragon Fruit</title><g id="Слой_3" data-name="Слой 3"><path class="cls-1" d="M1211.72,1117a519,519,0,0,0-9.85-90.71c-8.49-42.7-13.7-68.91-31.23-97.35-22.2-36-37.82-32.91-73.7-78.77-26-33.26-45.66-70.5-41.82-73.37,5.22-3.91,55.29,54.78,75,77.89,34.15,40,51.23,60.06,70.37,89.46,23.9,36.73,50,77.67,62.07,135.51,2.63,12.63,21.29,102.22-12.13,120.31-7.94,4.3-17,3.58-24.26,1.86" transform="translate(-27 -36.24)"/><path class="cls-2" d="M429.17,1123.91c-72.74-11.65-127.3-29.9-164.73-45.1-17.13-7-55.76-23.47-108.65-30.21-26-3.32-50.2-3.6-76,4.89-29.31,9.63-54.95,28.61-52.59,34.71,2,5.1,21.67-3.43,54.84-1.27,23,1.49,34.19,6.94,68.08,17.35,18.37,5.64,45.17,13.27,78.77,20.68,0,0,40.16,22,93.16,35s112.17,39,112.17,39" transform="translate(-27 -36.24)"/><ellipse class="cls-3" cx="813.14" cy="1164.45" rx="321.36" ry="473.41" transform="translate(-517.77 1691.21) rotate(-78.43)"/><path class="cls-4" d="M768.92,1327.65c-166.06-34-312.26-100.57-424.11-185.42,17.23,150.36,180.85,293.66,402.32,339,227.12,46.51,438.8-25.61,508.67-163.77C1114.65,1357.34,944.85,1363.68,768.92,1327.65Z" transform="translate(-27 -36.24)"/><path class="cls-5" d="M1244.17,1186.2c-7-10.52-20.48-15.56-34.75-11.25-8.27,2.5-10.28,5.76-18.84,9.9-10.92,5.29-18.25,5.12-49,6.33-43.82,1.73-38.11,2.42-51.38,2.24-30.85-.42-42.45-3.91-43.77-.32-2.45,6.65,38.8,14.63,73.26,53.32,13.85,15.54,21.16,29.94,40,39.7,3.92,2,13.36,6.45,27.28,14.31,7.65,4.32,13.82,8.08,17.89,10.62" transform="translate(-27 -36.24)"/><path class="cls-6" d="M1244.86,1186.84c-9.25-3.74-23-7.47-37.23-3.16-8.27,2.5-10.28,5.76-18.83,9.9-10.93,5.29-18.26,5.12-49,6.33-43.82,1.73-38.1,2.42-51.38,2.24-30.85-.42-42.45-3.91-43.77-.32-2.44,6.65,38.8,14.63,73.26,53.32,13.85,15.54,21.16,29.94,40,39.7,3.92,2,13.36,6.45,27.28,14.31,7.65,4.32,13.82,8.08,17.89,10.62" transform="translate(-27 -36.24)"/><path class="cls-7" d="M1214.16,1060.67a154.48,154.48,0,0,0-6.06-59.23c-10.27-33.15-29.68-54.07-58.82-84.81-25.4-26.81-39.22-41.38-62.44-56-21.5-13.54-24.85-10.6-120-41.62-42.44-13.84-58.08-19.75-89.87-27.5-22.73-5.54-36.93-2-57.84-11.84A130.09,130.09,0,0,1,773.24,743c-17.78-22.84-21.44-44.31-24-43.58s-1.71,25.11,7.43,47c15.86,38,51.27,56.86,77.67,70.48,125.13,64.57,157.45,71.53,204.65,105.58,21.08,15.22,51,40.09,81.55,79.24" transform="translate(-27 -36.24)"/><path class="cls-8" d="M1089.24,1431.91a327.74,327.74,0,0,1-61,53.46c-11,7.45-49.88,32.79-108.8,48.22-51.3,13.43-62.09,4.75-126.15,21.92-30.93,8.29-62.26,19.38-61.49,22.65.73,3.12,29.81-3.46,72.77-5.56,41.94-2,60,2,83.66,2.35,67.56,1,120.8-28.93,170.88-57.11,0,0,58.48-32.9,109.84-86.66,16.66-17.43,30.19-35.39,39.38-59a160.52,160.52,0,0,0,6.88-22.47" transform="translate(-27 -36.24)"/><path class="cls-9" d="M505.88,1354.52a615.39,615.39,0,0,1-74.82-23.28c-48.82-18.71-85-32.55-119.86-64.34-19.81-18.05-20.61-24.93-39.16-36.45-26.6-16.53-43.84-14.11-78.32-22.86C142,1194.47,90.49,1166.11,93.26,1154c2.08-9,34.67-8.63,41.55-8.54,22.83.29,35.62,5.75,74.62,18.69,53.46,17.74,51.32,14.75,75.7,24.6,30.66,12.38,35.81,17.83,60.16,28.24,21.15,9,52.31,19.91,93.6,26" transform="translate(-27 -36.24)"/><path class="cls-10" d="M475.38,1098.13a375.79,375.79,0,0,1-82.57-2.13c-43.46-6-42-13.61-107.14-26.49-49.46-9.78-61.45-7.57-93.62-20.31-11.33-4.48-22.9-9.92-24.65-7.32-2.82,4.17,20.59,27.59,45.45,44.55,41.69,28.46,66.79,24.7,119.71,48.4a381,381,0,0,1,69.07,40.29" transform="translate(-27 -36.24)"/><path class="cls-5" d="M863.7,1073c-24,.76-42.24,2.24-58.14,6.29-10.16,2.59-45.41,10.88-92.22,6.13-30.06-3.06-28.91-7.84-62.2-12.74a371.61,371.61,0,0,0-101.15-.25c-41.86,5.65-99.9,21-99.12,34.28.34,5.61,11,6.46,40.55,18.54,34.21,14,34.68,18.81,71.28,35.06,40.63,18,42.78,13.28,67.38,26.31,29,15.33,41.66,30.22,60.95,46.59,22.92,19.43,58.69,44,113.31,63" transform="translate(-27 -36.24)"/><path class="cls-11" d="M388.59,1016.68c-33.47-1.68-60.32-4-78.4-5.82-32.57-3.23-49.44-6-72.74-.12-8.13,2-43,10.76-43.59,24-.52,12.17,28,22.9,122.32,52.34,45.89,14.32,85,26.07,114.53,34.82" transform="translate(-27 -36.24)"/><path class="cls-12" d="M399.73,1017.82c-39.08-.7-70.75,1-92.64,2.64-22.19,1.7-53,4.84-99.21,7-20.48.94-32.73,1.17-48.72-.88-33.14-4.24-62.71-15.74-61.95-19.51.84-4.1,36.31,7,87.38.84,27.18-3.27,28.24-7.74,81.81-21.91,55.08-14.57,83.18-21.78,110.62-18.28,17.64,2.25,45.53,9.14,77.4,32.91" transform="translate(-27 -36.24)"/><path class="cls-13" d="M852,858c-153.94-46.44-219.57-52.71-249.47-47.67-9.21,1.55-28.91,6.51-56.61,4.32-26.72-2.11-35.26-8.86-59.82-7.7-8.76.42-28.11,1.52-47.89,11.8-37.17,19.3-53.86,59.53-50.32,62.46,2.77,2.29,16.73-19.05,49.74-31.88,8.59-3.34,20.47-7.83,35.64-7.48,20.73.47,33.89,9.65,47.77,16.6,16.64,8.34,41.81,17.24,78.12,18.27" transform="translate(-27 -36.24)"/><path class="cls-4" d="M852,858c-153.94-46.44-219.57-52.71-249.47-47.67-9.21,1.55-28.91,6.51-56.61,4.32-26.72-2.11-35.26-8.86-59.82-7.7-8.76.42-28.11,1.52-47.89,11.8-37.17,19.3-53.86,59.53-50.32,62.46,2.77,2.29,16.73-19.05,49.74-31.88,8.59-3.34,20.47-7.83,35.64-7.48,20.73.47,33.89,9.65,47.77,16.6,16.64,8.34,41.81,17.24,78.12,18.27" transform="translate(-27 -36.24)"/><path class="cls-14" d="M865,1072.17a252.31,252.31,0,0,1-63.25,25.71c-10.16,2.59-45.41,10.88-92.22,6.13-30.06-3-28.91-7.83-62.2-12.74a371.61,371.61,0,0,0-101.15-.25c-41.86,5.65-99.9,21-99.11,34.28.33,5.61,10.95,6.46,40.54,18.54,34.21,14,34.68,18.81,71.28,35.06,40.63,18,42.78,13.28,67.38,26.31,29,15.33,41.66,30.22,61,46.59,22.91,19.44,58.68,44,113.3,63" transform="translate(-27 -36.24)"/><path class="cls-15" d="M644.59,977c-16.52-13.65-42.05-30.46-75.64-36-29.09-4.76-47.68,1.68-128.14,26.06-107.3,32.52-118.31,34.43-135.6,34.77-34.11.66-64.18-5.37-106.33-13.82-23.55-4.72-57.11-11.44-56.72-17.3.09-1.33,2.17-5.87,79.57-11,78.58-5.2,85.57-1.12,115.16-7.12C379.45,944,386.72,931.2,435,912.47c30.74-11.94,76.61-25.68,138-29.73" transform="translate(-27 -36.24)"/><path class="cls-16" d="M223.22,969.17c78.58-5.19,85.57-1.12,115.16-7.12,42.56-8.62,50.32-20.22,98.05-40.18,13.5-5.64,14.61-15.67,51.37-25.69-16.71,3.34-26.73,6.68-52.85,16.29-48.56,17.87-55.5,31.56-98.06,40.18-29.59,6-36.58,1.92-115.16,7.12-77.4,5.12-79.48,9.66-79.57,11-.13,1.94,3.45,4,9.13,6C160.32,974.7,180.06,972,223.22,969.17Z" transform="translate(-27 -36.24)"/><path class="cls-17" d="M855.17,1503.36c-60.43,3.61-108.38-3.45-141.08-10.69-52.62-11.67-101.57-31.75-103.62-32.59-34.94-14.49-45.34-22.78-78.71-32-16.34-4.54-26.34-6-41.44-14.17-20.88-11.27-20.46-18.54-43.33-32.75-18.05-11.23-20.48-8-48.6-23.6-16.34-9-24.51-13.55-33.11-21.56-14.33-13.34-21.29-27.26-28-41-10.13-20.74-19.67-49-15.72-51,4.38-2.18,17.15,32,53.66,65.56,10.42,9.57,28.58,21,64.9,44,35.5,22.43,53.56,33.78,69.06,40.3,17.7,7.44,33.5,11.68,76.81,19.14,31.08,5.35,72.67,11.72,122.7,17.16" transform="translate(-27 -36.24)"/><path class="cls-18" d="M1032.74,1463.55a428.21,428.21,0,0,1-72.06,41c-35.5,15.83-58.77,25.83-87.26,20.79-13.2-2.33-22.46-7-41-16.35-31.5-15.89-34.6-25.36-59.69-36.1-16.62-7.12-14.53-2.65-51.93-12.91-20.76-5.7-36.53-11.48-68.06-23-46.23-17-48.22-19.77-48-21.2.81-4.4,24.5-3.56,55.06-2.36,51.58,2,50.67,5.84,72.94,4.7,41.65-2.13,44-15.44,82.87-16,33.13-.49,39,9,64.19,8.59,22.13-.4,54.29-8.38,93.49-45.66" transform="translate(-27 -36.24)"/><path class="cls-19" d="M977,1041.67a248.79,248.79,0,0,0-61.29-67.13C880.3,948,844,936.37,787.29,918.68c-60.07-18.75-75.51-17-104-36.09-20.69-13.84-63.18-44.32-57-60.56,9-23.35,113.55-4.49,188.05,9,30.84,5.56,11.22,3.2,136.83,31.43,62,13.93,78.71,17.19,100.79,29.74,44.66,25.37,69.59,65.08,83.25,93.23" transform="translate(-27 -36.24)"/><path class="cls-4" d="M919.5,956c-35.4-26.51-71.71-38.16-128.41-55.85-60.07-18.75-75.51-17-104-36.09-16.14-10.8-45.54-31.72-54.74-48.11-3,1.59-5.06,3.6-6,6.1-6.22,16.24,36.27,46.72,57,60.56,28.53,19.09,44,17.34,104,36.09,56.7,17.69,93,29.34,128.42,55.86A248.79,248.79,0,0,1,977,1041.67l.63-.23C973.35,1014.69,949.44,978.41,919.5,956Z" transform="translate(-27 -36.24)"/><g class="cls-20"><ellipse class="cls-21" cx="532.21" cy="1030.92" rx="118.53" ry="29.98" transform="translate(-267.08 128.88) rotate(-14.43)"/><ellipse class="cls-21" cx="527.33" cy="1029.35" rx="52.37" ry="13.25" transform="translate(-266.85 127.62) rotate(-14.43)"/><ellipse class="cls-21" cx="603.71" cy="1009.98" rx="15.33" ry="10.7" transform="translate(-259.61 146.04) rotate(-14.43)"/></g><ellipse class="cls-5" cx="626.22" cy="871.63" rx="163.19" ry="44"/></g><g id="Слой_1" data-name="Слой 1"><path class="cls-22" d="M609.56,840.84c33.82-18.75,42.42-150.9,74.91-144.21,25.26,14.78-40.73,115.25-47.7,154,3.5,9.89,52-17.22,54.4-8.74,29.22,34.86-37.49,26.41-51.3,27.31-10.22-2.58-12.51-6.52-18.65-4.37-10.65,3.15-36,58.86-51.3,51.35-20.23-11.32.34-33.33,13.22-37.14,37.48-35.75-72.84,36.84-63.73-5.47C530.46,828.7,559.25,875.11,609.56,840.84Z" transform="translate(-27 -36.24)"/><path d="M693.74,643.14c11.06,11.63,5.92,34.37,4.06,42.61-2.1,9.28-5.25,23.23-16.24,28.4-10.78,5.08-22.28-1.51-25.37-3.28-15.33-8.77-29.4-31.53-22.33-51.34C642.7,634.72,679.72,628.39,693.74,643.14Z" transform="translate(-27 -36.24)"/><path class="cls-23" d="M572.82,903.15c-4.24-2.25-9.34,5.31-11.66,8.74-7.58,11.23-8.54,27.31-8.54,27.31a41.17,41.17,0,0,1,10.88-16.38c6.72-6,12.21-4.85,13.21-9.84C577.44,909.37,575.39,904.51,572.82,903.15Z" transform="translate(-27 -36.24)"/><path class="cls-23" d="M529.3,862.73c-3.62-3-9.31,2.67-13.21,6.55s-7.44,9-7,9.84,4.57-5,11.66-6.56c6-1.29,9.62,1.58,10.88-1.09C532.68,869.24,531.47,864.52,529.3,862.73Z" transform="translate(-27 -36.24)"/><path class="cls-23" d="M531.63,876.93c-1.2-3.78-12-.3-16.32,1.09-6.72,2.17-11.75,3.89-16.32,9.84-4.77,6.2-6.22,15.29-6.22,15.29s6.46-13.58,16.32-15.29c6-1,8.39,3.62,14,1.09C528.29,886.59,532.51,879.71,531.63,876.93Z" transform="translate(-27 -36.24)"/><path class="cls-23" d="M694.85,850.71c3.46-6.8,12.08-5.17,16.32-4.37,14.89,2.83,24.87,18.57,24.87,18.57a35,35,0,0,0-17.88-6.55c-3.68-.34-7.56-.69-12.43,1.09-6.29,2.31-8.9,6.23-10.88,4.37S692.69,854.94,694.85,850.71Z" transform="translate(-27 -36.24)"/><path class="cls-24" d="M672.85,289.65c63.33,19.29,61.88,76.74,130.19,93.42,21.91,5.35,46.21,5.34,76.77,25.15,13.65,8.85,26,16.83,33.39,32.34,3.21,6.72,10.59,25.47-14.47,103-14.68,45.42-22,68.14-37.83,88.62a169.48,169.48,0,0,1-69,52.7c-63.72,26.8-124.35,3.89-198.06-24C533.21,638,510,616.63,502.6,609.43a218.23,218.23,0,0,1-53.41-83.84c-6.2-18.09-17.62-51.37-11.12-89.82,14.54-86,106.46-125,122.4-131.74C585.88,293.26,627.19,275.75,672.85,289.65Z" transform="translate(-27 -36.24)"/><path d="M432.5,129c6.91,18.17,18.41,18,25.6,37.13,6.2,16.55,3.51,32.37,1.11,44.31-10.49,52.22-25.43,80.45-34.5,115-2.89,11-20.37,81,6.68,144.91,14.48,34.23,31.33,42.16,36.72,44.31,17.93,7.19,35,1.05,41.17-1.19,28.47-10.28,43.65-36.29,55.64-57.49,19-33.58,13.2-42.51,33.38-82.64,16.92-33.65,25.38-50.48,42.28-57.48,30.67-12.72,68.06,14.11,93.47,32.33,34.11,24.47,35,39,66.76,52.7,31.58,13.56,52.3,15.57,52.3,15.57,18.51,1.79,29.78-1,32.27,4.79,3.31,7.66-11.36,24.55-26.71,34.73-28.5,18.9-57,13.06-57.86,20.36-.65,5.43,15.23,7.8,35.61,23.95,8.8,7,24.22,19.21,32.27,38.33,12.42,29.51-2.9,51.32,7.79,59.88,10.3,8.25,23.43-12.94,62.31-20.36,25.5-4.87,39,.58,66.76-10.78,5.07-2.08,23-9.44,22.25-15.57-1.36-10.65-58-6.4-60.08-19.16-1.55-9.51,29.06-17.19,28.93-32.34-.08-8.91-10.73-12.7-30-26.35-31.89-22.52-29.53-31-63.43-55.09-15.89-11.28-13.58-7.41-38.94-23.95-14.32-9.34-36.09-23.53-59-43.12-41.6-35.59-36.2-35.39-60.15-47.79-24.72-12.79-39-16.83-55.57-37.24-6-7.37-8.82-14.13-13.35-25.15-11.66-28.36-12.25-48.45-15.58-67.07-1.58-8.82-9.69-54.09-41.17-88.62C595.2,59.3,567.28,50.26,551.56,45.17c-18.52-6-42.9-13.9-71.21-4.79-10.13,3.25-27.92,9-40.06,27.54a73.65,73.65,0,0,0-11.55,38.74c0,3.56,20.66,10.76,21.19,14.23.34,2.26-19.67.84-19.08,3C431.32,125.63,431.87,127.34,432.5,129Z" transform="translate(-27 -36.24)"/><path d="M983.29,482.85S1096,525.37,1125.8,543.68c44.7,27.46,27.12,6.45,166.29,66.86,95.89,41.63,101.23,50.31,144.39,62.55,31.58,8.95,60.94,26.23,93.16,32.27,1.06.2,31.06,5.81,31,14,0,2.72-3.28,3.44-4.1,7.59-1.58,8,9.06,12.91,8.82,20.74-.24,8.25-12.39,14.25-13.87,15-18.89,9.33-42.62-4.37-63.75-16.18-64.68-36.15-97.75-54.43-133.57-64.73-15.89-4.56-19.1-4-45.39-11.51-27.07-7.73-50.22-15.88-73.18-24.74-42.24-16.31-47.86-21.13-108-47.13-60.41-26.14-90.61-39.21-99.06-41.17-33.57-7.8-60.77-8.07-71-29.12-4.17-8.58-6.36-22.34-.38-32.16C963.89,485.06,983.29,482.85,983.29,482.85Z" transform="translate(-27 -36.24)"/><path d="M887.28,410.3s49.5,29.29,57.07,33.68,24.85,14,73.44,34.74c52.2,22.23,72.33,31.13,72.33,31.13s-50.63-4.14-116.84-15.57c-65.15-11.24-72.53-14.16-95.69-13.17-35.74,1.52-44,9.56-67.88,2.4-13.12-3.95-29.71-12.12-43.39-3.6-6.41,4-5.89,7.73-11.13,10.78-13.22,7.7-30.25-8.16-62.31-27.54-40.08-24.23-50.24-21.67-71.22-43.12-13.24-13.54-23.36-34.73-23.36-34.73s6.53,2.47,34.49,20.36c21,13.41,26.65,16.72,35.61,19.16,12.92,3.52,14.09.17,24.48,3.59,18.86,6.22,19,18.57,34.49,26.35,13.09,6.56,15.76-.83,60.09-2.39,26.6-.94,30.51,1.55,40.06-3.6,16-8.64,16.09-21.64,30-25.15,16.37-4.11,30,10.34,34.49,4.79C896.27,423.17,887.28,410.3,887.28,410.3Z" transform="translate(-27 -36.24)"/><path class="cls-22" d="M508.4,121.18A214,214,0,0,1,484.8,117c-16.34-4.14-23.12-2.76-36.72-8.39a50,50,0,0,1-14.46-9.58s14.79,3.26,25.59-4.79c1.28-1,6.91-5.15,6.67-10.78-.21-5.31-5.53-8.82-6.67-9.58-7.38-4.87-15.26-2.18-33.38,2.4-26.74,6.74-26.69,5.19-37.84,9.58-8.83,3.48-18,8.07-26.7,16.76-4.16,4.18-7.79,12-7.79,12s17.55.21,37.83-1.2c9.8-.68,33,2.34,79,8.39C495.47,125.12,508.4,121.18,508.4,121.18Z" transform="translate(-27 -36.24)"/><path class="cls-21" d="M358.78,114.63a35.1,35.1,0,0,1,4.51-6C372,100,381.16,95.37,390,91.89c11.15-4.39,11.1-2.84,37.84-9.58,18.12-4.58,26-7.27,33.38-2.4a18.41,18.41,0,0,1,4.66,4.27c0-.23,0-.45,0-.69-.21-5.31-5.53-8.82-6.67-9.58-7.38-4.87-15.26-2.18-33.38,2.4-26.74,6.74-26.69,5.19-37.84,9.58-8.83,3.48-18,8.07-26.7,16.76-4.16,4.18-7.79,12-7.79,12S355.45,114.65,358.78,114.63Z" transform="translate(-27 -36.24)"/><path class="cls-22" d="M481.11,120.76s-13.52,11.88-22.29,13.41C448.59,136,437,137,417.49,133.71c-12.56-2.13-35.76-15.3-35.76-15.3s17.58-1.27,52.42-.38C473.44,119,481.11,120.76,481.11,120.76Z" transform="translate(-27 -36.24)"/><path class="cls-25" d="M556,117s-14.46,6-30,3.59S502.6,111,502.6,111s-4.45-51.5,28.93-47.91S556,117,556,117Z" transform="translate(-27 -36.24)"/><path class="cls-22" d="M744.56,860.93c35.93-19,48.27-168.15,82.13-158.09,27.86,15.08-44.74,127-52.3,168.87,3.84,10.85,57-18.88,59.63-9.58,32.05,38.21-41.09,29-56.23,29.94-11.2-2.83-13.71-7.15-20.45-4.79-11.67,3.46-39.46,64.53-56.23,56.29-17-4.38-5-31.87,1.71-33.53,5.88-3.12,23-12.51,23-19.17-7-1.61-65,28.11-75,20.36-11.06-9.57-.24-43.45,16.18-37.12C712,880.41,710.41,876,744.56,860.93Z" transform="translate(-27 -36.24)"/><path d="M836.42,644c12.12,12.75,6.49,37.68,4.45,46.71-2.3,10.17-5.76,25.46-17.8,31.14-11.83,5.57-24.43-1.65-27.82-3.6C778.44,708.62,763,683.68,770.77,662,780.46,634.76,821,627.82,836.42,644Z" transform="translate(-27 -36.24)"/><path class="cls-23" d="M703.86,929c-4.65-2.46-10.24,5.82-12.78,9.58-8.31,12.31-9.37,29.94-9.37,29.94a45.27,45.27,0,0,1,11.93-18C701,944,707,945.27,708.12,939.81,708.92,935.84,706.68,930.52,703.86,929Z" transform="translate(-27 -36.24)"/><path class="cls-23" d="M656.15,884.72c-4-3.28-10.21,2.93-14.49,7.18s-8.15,9.87-7.67,10.78,5-5.52,12.78-7.18c6.59-1.41,10.55,1.73,11.93-1.2C659.85,891.86,658.53,886.68,656.15,884.72Z" transform="translate(-27 -36.24)"/><path class="cls-23" d="M658.7,900.29c-1.32-4.15-13.13-.34-17.89,1.19-7.36,2.38-12.88,4.26-17.89,10.78-5.23,6.8-6.82,16.77-6.82,16.77s7.08-14.89,17.89-16.77c6.55-1.13,9.2,4,15.34,1.2C655,910.88,659.67,903.33,658.7,900.29Z" transform="translate(-27 -36.24)"/><path class="cls-23" d="M837.63,871.54c3.8-7.46,13.25-5.67,17.89-4.79,16.32,3.1,27.27,20.36,27.27,20.36s-7.35-6.06-19.6-7.18c-4-.37-8.29-.76-13.63,1.19-6.9,2.53-9.76,6.84-11.93,4.8S835.27,876.18,837.63,871.54Z" transform="translate(-27 -36.24)"/><ellipse class="cls-26" cx="497.86" cy="56.84" rx="16.69" ry="20.36"/><ellipse class="cls-27" cx="497.86" cy="56.84" rx="6.68" ry="11.98"/><ellipse class="cls-28" cx="504.39" cy="45.36" rx="4.31" ry="4.09"/><path class="cls-29" d="M977.22,1041.47a248.79,248.79,0,0,0-61.43-67c-35.46-26.45-71.79-38-128.53-55.61C727.16,900.22,711.72,902,683.16,883c-20.72-13.8-63.27-44.2-57.08-60.44,8.91-23.38,113.54-4.72,188.07,8.58,30.85,5.5,11.22,3.18,136.89,31.16,62,13.81,78.74,17,100.85,29.54,44.7,25.29,69.71,64.94,83.42,93.07" transform="translate(-27 -36.24)"/><path class="cls-4" d="M919.55,955.9c-35.46-26.45-71.79-38-128.52-55.61-60.11-18.63-75.55-16.85-104.11-35.89-16.16-10.76-45.61-31.63-54.84-48-3,1.6-5.05,3.62-6,6.12-6.19,16.24,36.36,46.64,57.08,60.44,28.56,19,44,17.26,104.1,35.89C844,936.43,880.33,948,915.79,974.46a248.79,248.79,0,0,1,61.43,67l.62-.23C973.51,1014.5,949.53,978.26,919.55,955.9Z" transform="translate(-27 -36.24)"/><path class="cls-5" d="M719,635c-148.56,0-269-96.48-269-215.5a175.75,175.75,0,0,1,1.31-21.36,135.37,135.37,0,0,0-12.24,37.63c-6.5,38.45,4.92,71.73,11.12,89.82a218.23,218.23,0,0,0,53.41,83.84c7.44,7.2,30.61,28.59,91.25,51.5,73.71,27.84,134.34,50.75,198.06,24a169.48,169.48,0,0,0,69-52.7c9.29-12,15.66-24.86,22.31-42.61C838.62,618,781.29,635,719,635Z" transform="translate(-27 -36.24)"/></g></svg>