<svg xmlns="http://www.w3.org/2000/svg" viewBox="0 0 1599.5 1643.65"><defs><style>.cls-1,.cls-6{fill:#fff;}.cls-1{stroke:#111216;stroke-width:27px;}.cls-1,.cls-5{stroke-miterlimit:10;}.cls-2{fill:#828388;}.cls-3{fill:#23202b;}.cls-4{fill:#111216;}.cls-5{fill:none;stroke:#fff;stroke-width:4px;}.cls-7{font-size:183px;}.cls-7,.cls-8{font-family:mr_ITCSerifGothic-Black, mr_ITCSerifGothic;font-weight:800;}.cls-8{font-size:105px;}</style></defs><title>PicaLogo</title><g id="Слой_1" data-name="Слой 1"><circle class="cls-1" cx="799.75" cy="835.13" r="786.25"/></g><g id="Слой_3" data-name="Слой 3"><path class="cls-2" d="M207,370.05c-2.58-.1-12-.35-13.36-4.45-1.66-5,9.5-12.86,13.36-15.58,41-28.91,138-37.85,138-37.85,39.81-3.66,65.12-3.92,115.75-4.45,53.4-.55,69.1,1.31,82.36,13.36,10.32,9.38,15.78,27.77,26.71,64.55,5.11,17.19,7.43,29.54,2.23,42.29a44.47,44.47,0,0,1-13.36,17.81c-21,16.18-58.78-.36-93.49-13.36-50.46-18.88-89.54-33.51-138-40.06C286.77,386.85,247.67,371.58,207,370.05Z" transform="translate(-0.5 34.38)"/><path class="cls-3" d="M195.82,367.82s43.51-11.5,69-11.13c31,.46,58.78,5.17,104.62,17.81,65.83,18.15,67.75,24.78,155.81,53.42,50.28,16.36,90.44,3.31,90.44,3.31S561.42,469.5,531.93,468c-26.56-1.36-45.76-7.44-57.87-11.13-44.59-13.58-90.62-21.88-135.78-33.39a959.29,959.29,0,0,1-113.53-37.84C208.53,379.1,195.82,367.82,195.82,367.82Z" transform="translate(-0.5 34.38)"/><path class="cls-4" d="M372.78,328.87s29.66-13.68,93.49-40.07c65.8-27.2,91.69-48.05,166.94-69,21.77-6.06,99-26.69,189.2-8.9,121.51,24,197.51,105.93,222.59,133.55,72,79.33,134.52,207.2,148,234.83,6.71,13.73,16.61,34.77,35.62,60.1,29.54,39.38,55.11,54.49,111.29,97.94,60,46.43,109.07,93.49,109.07,93.49s-30.25-24.16-77.91-46.74c-29.49-14-89-41.32-160.26-31.17-28.23,4-59.59,8.5-80.13,33.39-6.42,7.78-21,28.78-15.59,100.17,7.2,94,28.94,155.81,28.94,155.81S1115,1025.89,1104,1002.2c-12-25.8-11.13-49-11.13-49s-13.6,46.42-28.94,93.49c-15.9,48.78-34.43,81.29-66.78,138-17.62,30.9-39.41,68.8-73.45,113.52-50.59,66.44-109.07,113.52-109.07,113.52l80.13-133.55s-22.4,19.32-60.1,33.38c-62.52,23.32-122.5-.76-131.33-4.45-7.9-3.3-44-19.09-80.13-64.55-78.71-99.13-70.78-230.46-66.78-269.33,10.39-100.77,33.39-187,33.39-187a237.25,237.25,0,0,0,8.91-55.65c.3-8.28.87-36.57-17.81-100.16-16.25-55.3-26.12-87.73-53.42-122.43C518,496,505.92,480.94,485.19,468c-33.36-20.83-66.78-24.49-66.78-24.49S541,465.19,552,439.05c5.45-12.95-19-35.11-24.48-40.06-18.36-16.68-36.86-22.13-57.88-28.94C405.38,349.24,372.78,328.87,372.78,328.87Z" transform="translate(-0.5 34.38)"/><circle class="cls-5" cx="617.13" cy="389.96" r="43.41"/><circle class="cls-6" cx="637.12" cy="390.42" r="20.36"/></g><g id="Слой_4" data-name="Слой 4"><text class="cls-7" transform="translate(378.33 1470.35) rotate(28.39)">P</text><text class="cls-7" transform="matrix(0.93, 0.37, -0.37, 0.93, 490.48, 1528.07)">i</text><text class="cls-7" transform="translate(543.85 1549.54) rotate(16.24)">c</text><text class="cls-7" transform="translate(631.03 1575.22) rotate(8.46)">a</text><text class="cls-7" transform="translate(749.72 1590.71) rotate(1.67)"> </text><text class="cls-7" transform="translate(817.3 1593.88) rotate(-5.32)">P</text><text class="cls-7" transform="translate(942.59 1579.67) rotate(-12.11)">i</text><text class="cls-7" transform="translate(998.89 1567.94) rotate(-17.44)">c</text><text class="cls-7" transform="translate(1085.71 1540.94) rotate(-25.24)">a</text></g><g id="Слой_5" data-name="Слой 5"><text class="cls-8" transform="translate(1107.25 138.18) rotate(-159.16)">p</text><text class="cls-8" transform="matrix(-0.95, -0.3, 0.3, -0.95, 1045.29, 115.27)">i</text><text class="cls-8" transform="matrix(-0.97, -0.25, 0.25, -0.97, 1015.77, 105.93)">c</text><text class="cls-8" transform="translate(968.14 93.54) rotate(-169.91)">a</text><text class="cls-8" transform="translate(901.98 81.94) rotate(-174.85)">p</text><text class="cls-8" transform="matrix(-1, -0.03, 0.03, -1, 836.14, 76.64)">i</text><text class="cls-8" transform="matrix(-1, 0.02, -0.02, -1, 805.18, 75.64)">c</text><text class="cls-8" transform="translate(756.06 76.59) rotate(174.47)">a</text><text class="cls-8" transform="translate(690.48 83.51) rotate(170.82)">.</text><text class="cls-8" transform="translate(653.89 88.35) rotate(166.05)">m</text><text class="cls-8" transform="translate(561.03 112.43) rotate(160.08)">e</text></g></svg>