<svg width="707" height="300" viewBox="0 0 707 300" fill="none" xmlns="http://www.w3.org/2000/svg">
<rect opacity="0.5" width="707" height="300" rx="20" fill="#FEECF0"/>
<path d="M233.402 112.744C234.586 112.744 235.618 112.6 236.498 112.312C237.378 112.008 238.106 111.584 238.682 111.04C239.274 110.48 239.714 109.808 240.002 109.024C240.29 108.224 240.434 107.336 240.434 106.36C240.434 105.432 240.29 104.592 240.002 103.84C239.714 103.088 239.282 102.448 238.706 101.92C238.13 101.392 237.402 100.992 236.522 100.72C235.642 100.432 234.602 100.288 233.402 100.288H228.578V112.744H233.402ZM233.402 95.296C235.722 95.296 237.73 95.568 239.426 96.112C241.122 96.656 242.522 97.416 243.626 98.392C244.73 99.368 245.546 100.536 246.074 101.896C246.618 103.256 246.89 104.744 246.89 106.36C246.89 108.04 246.61 109.584 246.05 110.992C245.49 112.384 244.65 113.584 243.53 114.592C242.41 115.6 241.002 116.384 239.306 116.944C237.626 117.504 235.658 117.784 233.402 117.784H228.578V130H222.122V95.296H233.402ZM256.955 105.376V130H251.003V105.376H256.955ZM257.771 98.2C257.771 98.712 257.667 99.192 257.459 99.64C257.251 100.088 256.971 100.48 256.619 100.816C256.283 101.152 255.883 101.424 255.419 101.632C254.955 101.824 254.459 101.92 253.931 101.92C253.419 101.92 252.931 101.824 252.467 101.632C252.019 101.424 251.627 101.152 251.291 100.816C250.955 100.48 250.683 100.088 250.475 99.64C250.283 99.192 250.187 98.712 250.187 98.2C250.187 97.672 250.283 97.176 250.475 96.712C250.683 96.248 250.955 95.848 251.291 95.512C251.627 95.176 252.019 94.912 252.467 94.72C252.931 94.512 253.419 94.408 253.931 94.408C254.459 94.408 254.955 94.512 255.419 94.72C255.883 94.912 256.283 95.176 256.619 95.512C256.971 95.848 257.251 96.248 257.459 96.712C257.667 97.176 257.771 97.672 257.771 98.2ZM280.638 110.584C280.462 110.808 280.286 110.984 280.11 111.112C279.95 111.24 279.71 111.304 279.39 111.304C279.086 111.304 278.79 111.216 278.502 111.04C278.214 110.848 277.87 110.64 277.47 110.416C277.07 110.176 276.59 109.968 276.03 109.792C275.486 109.6 274.806 109.504 273.99 109.504C272.95 109.504 272.038 109.696 271.254 110.08C270.47 110.448 269.814 110.984 269.286 111.688C268.774 112.392 268.39 113.248 268.134 114.256C267.878 115.248 267.75 116.376 267.75 117.64C267.75 118.952 267.886 120.12 268.158 121.144C268.446 122.168 268.854 123.032 269.382 123.736C269.91 124.424 270.55 124.952 271.302 125.32C272.054 125.672 272.902 125.848 273.846 125.848C274.79 125.848 275.55 125.736 276.126 125.512C276.718 125.272 277.214 125.016 277.614 124.744C278.014 124.456 278.358 124.2 278.646 123.976C278.95 123.736 279.286 123.616 279.654 123.616C280.134 123.616 280.494 123.8 280.734 124.168L282.438 126.328C281.782 127.096 281.07 127.744 280.302 128.272C279.534 128.784 278.734 129.2 277.902 129.52C277.086 129.824 276.238 130.04 275.358 130.168C274.494 130.296 273.63 130.36 272.766 130.36C271.246 130.36 269.814 130.08 268.47 129.52C267.126 128.944 265.95 128.112 264.942 127.024C263.934 125.936 263.134 124.608 262.542 123.04C261.966 121.456 261.678 119.656 261.678 117.64C261.678 115.832 261.934 114.16 262.446 112.624C262.974 111.072 263.742 109.736 264.75 108.616C265.758 107.48 267.006 106.592 268.494 105.952C269.982 105.312 271.694 104.992 273.63 104.992C275.47 104.992 277.078 105.288 278.454 105.88C279.846 106.472 281.094 107.32 282.198 108.424L280.638 110.584ZM299.163 119.488C297.451 119.568 296.011 119.72 294.843 119.944C293.675 120.152 292.739 120.424 292.035 120.76C291.331 121.096 290.827 121.488 290.523 121.936C290.219 122.384 290.067 122.872 290.067 123.4C290.067 124.44 290.371 125.184 290.979 125.632C291.603 126.08 292.411 126.304 293.403 126.304C294.619 126.304 295.667 126.088 296.547 125.656C297.443 125.208 298.315 124.536 299.163 123.64V119.488ZM285.579 108.808C288.411 106.216 291.819 104.92 295.803 104.92C297.243 104.92 298.531 105.16 299.667 105.64C300.803 106.104 301.763 106.76 302.547 107.608C303.331 108.44 303.923 109.44 304.323 110.608C304.739 111.776 304.947 113.056 304.947 114.448V130H302.259C301.699 130 301.267 129.92 300.963 129.76C300.659 129.584 300.419 129.24 300.243 128.728L299.715 126.952C299.091 127.512 298.483 128.008 297.891 128.44C297.299 128.856 296.683 129.208 296.043 129.496C295.403 129.784 294.715 130 293.979 130.144C293.259 130.304 292.459 130.384 291.579 130.384C290.539 130.384 289.579 130.248 288.699 129.976C287.819 129.688 287.059 129.264 286.419 128.704C285.779 128.144 285.283 127.448 284.931 126.616C284.579 125.784 284.403 124.816 284.403 123.712C284.403 123.088 284.507 122.472 284.715 121.864C284.923 121.24 285.259 120.648 285.723 120.088C286.203 119.528 286.819 119 287.571 118.504C288.323 118.008 289.243 117.576 290.331 117.208C291.435 116.84 292.715 116.544 294.171 116.32C295.627 116.08 297.291 115.936 299.163 115.888V114.448C299.163 112.8 298.811 111.584 298.107 110.8C297.403 110 296.387 109.6 295.059 109.6C294.099 109.6 293.299 109.712 292.659 109.936C292.035 110.16 291.483 110.416 291.003 110.704C290.523 110.976 290.083 111.224 289.683 111.448C289.299 111.672 288.867 111.784 288.387 111.784C287.971 111.784 287.619 111.68 287.331 111.472C287.043 111.248 286.811 110.992 286.635 110.704L285.579 108.808ZM334.417 112.744C335.601 112.744 336.633 112.6 337.513 112.312C338.393 112.008 339.121 111.584 339.697 111.04C340.289 110.48 340.729 109.808 341.017 109.024C341.305 108.224 341.449 107.336 341.449 106.36C341.449 105.432 341.305 104.592 341.017 103.84C340.729 103.088 340.297 102.448 339.721 101.92C339.145 101.392 338.417 100.992 337.537 100.72C336.657 100.432 335.617 100.288 334.417 100.288H329.593V112.744H334.417ZM334.417 95.296C336.737 95.296 338.745 95.568 340.441 96.112C342.137 96.656 343.537 97.416 344.641 98.392C345.745 99.368 346.561 100.536 347.089 101.896C347.633 103.256 347.905 104.744 347.905 106.36C347.905 108.04 347.625 109.584 347.065 110.992C346.505 112.384 345.665 113.584 344.545 114.592C343.425 115.6 342.017 116.384 340.321 116.944C338.641 117.504 336.673 117.784 334.417 117.784H329.593V130H323.137V95.296H334.417ZM357.97 105.376V130H352.018V105.376H357.97ZM358.786 98.2C358.786 98.712 358.682 99.192 358.474 99.64C358.266 100.088 357.986 100.48 357.634 100.816C357.298 101.152 356.898 101.424 356.434 101.632C355.97 101.824 355.474 101.92 354.946 101.92C354.434 101.92 353.946 101.824 353.482 101.632C353.034 101.424 352.642 101.152 352.306 100.816C351.97 100.48 351.698 100.088 351.49 99.64C351.298 99.192 351.202 98.712 351.202 98.2C351.202 97.672 351.298 97.176 351.49 96.712C351.698 96.248 351.97 95.848 352.306 95.512C352.642 95.176 353.034 94.912 353.482 94.72C353.946 94.512 354.434 94.408 354.946 94.408C355.474 94.408 355.97 94.512 356.434 94.72C356.898 94.912 357.298 95.176 357.634 95.512C357.986 95.848 358.266 96.248 358.474 96.712C358.682 97.176 358.786 97.672 358.786 98.2ZM381.654 110.584C381.478 110.808 381.302 110.984 381.126 111.112C380.966 111.24 380.726 111.304 380.406 111.304C380.102 111.304 379.806 111.216 379.518 111.04C379.23 110.848 378.886 110.64 378.486 110.416C378.086 110.176 377.606 109.968 377.046 109.792C376.502 109.6 375.822 109.504 375.006 109.504C373.966 109.504 373.054 109.696 372.27 110.08C371.486 110.448 370.83 110.984 370.302 111.688C369.79 112.392 369.406 113.248 369.15 114.256C368.894 115.248 368.766 116.376 368.766 117.64C368.766 118.952 368.902 120.12 369.174 121.144C369.462 122.168 369.87 123.032 370.398 123.736C370.926 124.424 371.566 124.952 372.318 125.32C373.07 125.672 373.918 125.848 374.862 125.848C375.806 125.848 376.566 125.736 377.142 125.512C377.734 125.272 378.23 125.016 378.63 124.744C379.03 124.456 379.374 124.2 379.662 123.976C379.966 123.736 380.302 123.616 380.67 123.616C381.15 123.616 381.51 123.8 381.75 124.168L383.454 126.328C382.798 127.096 382.086 127.744 381.318 128.272C380.55 128.784 379.75 129.2 378.918 129.52C378.102 129.824 377.254 130.04 376.374 130.168C375.51 130.296 374.646 130.36 373.782 130.36C372.262 130.36 370.83 130.08 369.486 129.52C368.142 128.944 366.966 128.112 365.958 127.024C364.95 125.936 364.15 124.608 363.558 123.04C362.982 121.456 362.694 119.656 362.694 117.64C362.694 115.832 362.95 114.16 363.462 112.624C363.99 111.072 364.758 109.736 365.766 108.616C366.774 107.48 368.022 106.592 369.51 105.952C370.998 105.312 372.71 104.992 374.646 104.992C376.486 104.992 378.094 105.288 379.47 105.88C380.862 106.472 382.11 107.32 383.214 108.424L381.654 110.584ZM400.178 119.488C398.466 119.568 397.026 119.72 395.858 119.944C394.69 120.152 393.754 120.424 393.05 120.76C392.346 121.096 391.842 121.488 391.538 121.936C391.234 122.384 391.082 122.872 391.082 123.4C391.082 124.44 391.386 125.184 391.994 125.632C392.618 126.08 393.426 126.304 394.418 126.304C395.634 126.304 396.682 126.088 397.562 125.656C398.458 125.208 399.33 124.536 400.178 123.64V119.488ZM386.594 108.808C389.426 106.216 392.834 104.92 396.818 104.92C398.258 104.92 399.546 105.16 400.682 105.64C401.818 106.104 402.778 106.76 403.562 107.608C404.346 108.44 404.938 109.44 405.338 110.608C405.754 111.776 405.962 113.056 405.962 114.448V130H403.274C402.714 130 402.282 129.92 401.978 129.76C401.674 129.584 401.434 129.24 401.258 128.728L400.73 126.952C400.106 127.512 399.498 128.008 398.906 128.44C398.314 128.856 397.698 129.208 397.058 129.496C396.418 129.784 395.73 130 394.994 130.144C394.274 130.304 393.474 130.384 392.594 130.384C391.554 130.384 390.594 130.248 389.714 129.976C388.834 129.688 388.074 129.264 387.434 128.704C386.794 128.144 386.298 127.448 385.946 126.616C385.594 125.784 385.418 124.816 385.418 123.712C385.418 123.088 385.522 122.472 385.73 121.864C385.938 121.24 386.274 120.648 386.738 120.088C387.218 119.528 387.834 119 388.586 118.504C389.338 118.008 390.258 117.576 391.346 117.208C392.45 116.84 393.73 116.544 395.186 116.32C396.642 116.08 398.306 115.936 400.178 115.888V114.448C400.178 112.8 399.826 111.584 399.122 110.8C398.418 110 397.402 109.6 396.074 109.6C395.114 109.6 394.314 109.712 393.674 109.936C393.05 110.16 392.498 110.416 392.018 110.704C391.538 110.976 391.098 111.224 390.698 111.448C390.314 111.672 389.882 111.784 389.402 111.784C388.986 111.784 388.634 111.68 388.346 111.472C388.058 111.248 387.826 110.992 387.65 110.704L386.594 108.808ZM440.895 116.896L436.671 105.352C436.463 104.84 436.247 104.232 436.023 103.528C435.799 102.824 435.575 102.064 435.351 101.248C435.143 102.064 434.927 102.832 434.703 103.552C434.479 104.256 434.263 104.872 434.055 105.4L429.855 116.896H440.895ZM452.295 130H447.303C446.743 130 446.287 129.864 445.935 129.592C445.583 129.304 445.319 128.952 445.143 128.536L442.551 121.456H428.175L425.583 128.536C425.455 128.904 425.207 129.24 424.839 129.544C424.471 129.848 424.015 130 423.471 130H418.431L432.087 95.296H438.663L452.295 130ZM460.497 109.648C461.265 108.176 462.177 107.024 463.233 106.192C464.289 105.344 465.537 104.92 466.977 104.92C468.113 104.92 469.025 105.168 469.713 105.664L469.329 110.104C469.249 110.392 469.129 110.6 468.969 110.728C468.825 110.84 468.625 110.896 468.369 110.896C468.129 110.896 467.769 110.856 467.289 110.776C466.825 110.696 466.369 110.656 465.921 110.656C465.265 110.656 464.681 110.752 464.169 110.944C463.657 111.136 463.193 111.416 462.777 111.784C462.377 112.136 462.017 112.568 461.697 113.08C461.393 113.592 461.105 114.176 460.833 114.832V130H454.905V105.376H458.385C458.993 105.376 459.417 105.488 459.657 105.712C459.897 105.92 460.057 106.304 460.137 106.864L460.497 109.648ZM481.019 130.384C478.875 130.384 477.227 129.784 476.075 128.584C474.939 127.368 474.371 125.696 474.371 123.568V109.816H471.851C471.531 109.816 471.259 109.712 471.035 109.504C470.811 109.296 470.699 108.984 470.699 108.568V106.216L474.659 105.568L475.907 98.848C475.987 98.528 476.139 98.28 476.363 98.104C476.587 97.928 476.875 97.84 477.227 97.84H480.299V105.592H486.875V109.816H480.299V123.16C480.299 123.928 480.483 124.528 480.851 124.96C481.235 125.392 481.755 125.608 482.411 125.608C482.779 125.608 483.083 125.568 483.323 125.488C483.579 125.392 483.795 125.296 483.971 125.2C484.163 125.104 484.331 125.016 484.475 124.936C484.619 124.84 484.763 124.792 484.907 124.792C485.083 124.792 485.227 124.84 485.339 124.936C485.451 125.016 485.571 125.144 485.699 125.32L487.475 128.2C486.611 128.92 485.619 129.464 484.499 129.832C483.379 130.2 482.219 130.384 481.019 130.384Z" fill="black"/>
<rect x="237" y="156" width="233" height="2" fill="black"/>
<path d="M57.7041 200.467C57.499 202.664 56.7422 204.354 55.4336 205.535C54.125 206.707 52.3477 207.293 50.1016 207.293C48.5879 207.293 47.2451 206.912 46.0732 206.15C44.9111 205.379 44.0078 204.29 43.3633 202.884C42.7188 201.468 42.3916 199.852 42.3818 198.035V194.739C42.3818 192.923 42.6992 191.302 43.334 189.876C43.9688 188.44 44.8721 187.332 46.0439 186.551C47.2256 185.77 48.5781 185.379 50.1016 185.379C52.3281 185.379 54.1006 185.965 55.4189 187.137C56.7373 188.309 57.499 189.988 57.7041 192.176H56.9131C56.6885 190.213 56.0049 188.724 54.8623 187.708C53.7197 186.683 52.1328 186.17 50.1016 186.17C48.0312 186.17 46.3564 186.951 45.0771 188.514C43.8076 190.076 43.1729 192.171 43.1729 194.798V197.933C43.1729 199.612 43.4561 201.102 44.0225 202.4C44.5889 203.689 45.3994 204.695 46.4541 205.418C47.5186 206.141 48.7344 206.502 50.1016 206.502C52.1426 206.502 53.7344 205.999 54.877 204.993C56.0293 203.987 56.708 202.479 56.9131 200.467H57.7041ZM61.6445 206.209L62.2012 205.462C63.6367 203.499 64.4717 200.652 64.7061 196.922L65.0137 191.15H73.5244V206.209H74.7842V211.658H73.9932V207H61.2344V211.658H60.5898V206.209H61.6445ZM62.6113 206.209H72.7334V191.941H65.7607L65.4824 197.186C65.209 201.16 64.252 204.168 62.6113 206.209ZM84.2324 207.293C82.9531 207.293 81.7764 206.951 80.7021 206.268C79.6377 205.574 78.8027 204.627 78.1973 203.426C77.5918 202.225 77.2891 200.892 77.2891 199.427V198.768C77.2891 197.303 77.582 195.96 78.168 194.739C78.7539 193.519 79.5596 192.566 80.585 191.883C81.6104 191.199 82.7285 190.857 83.9395 190.857C85.707 190.857 87.1523 191.487 88.2754 192.747C89.3984 194.007 89.96 195.662 89.96 197.713V198.548H78.0801V199.412C78.0801 200.701 78.3486 201.897 78.8857 203.001C79.4326 204.095 80.1797 204.954 81.127 205.579C82.084 206.204 83.1191 206.517 84.2324 206.517C85.2969 206.517 86.2002 206.341 86.9424 205.989C87.6943 205.628 88.3584 205.076 88.9346 204.334L89.4912 204.729C88.3096 206.438 86.5566 207.293 84.2324 207.293ZM83.9395 191.648C82.3965 191.648 81.0879 192.225 80.0137 193.377C78.9395 194.52 78.3096 195.979 78.124 197.757H89.1689V197.566C89.1689 196.492 88.9395 195.496 88.4805 194.578C88.0312 193.65 87.4062 192.933 86.6055 192.425C85.8145 191.907 84.9258 191.648 83.9395 191.648ZM105.048 191.15V207H104.242V191.956H96.6543L96.3467 199.368C96.1904 202.19 95.8096 204.163 95.2041 205.286C94.6084 206.409 93.6514 206.98 92.333 207H91.7764V206.224H92.4355C93.4316 206.185 94.1592 205.662 94.6182 204.656C95.0869 203.65 95.3945 201.971 95.541 199.617L95.8926 191.15H105.048ZM120.326 207C120.131 206.326 120.033 205.359 120.033 204.1C119.408 205.115 118.554 205.901 117.47 206.458C116.386 207.015 115.16 207.293 113.793 207.293C112.328 207.293 111.146 206.897 110.248 206.106C109.359 205.306 108.915 204.266 108.915 202.986C108.915 201.531 109.569 200.369 110.878 199.5C112.196 198.621 113.944 198.172 116.122 198.152H120.033V195.838C120.033 194.51 119.613 193.479 118.773 192.747C117.943 192.015 116.752 191.648 115.199 191.648C113.754 191.648 112.548 192.02 111.581 192.762C110.614 193.504 110.131 194.422 110.131 195.516L109.34 195.486C109.34 194.197 109.906 193.104 111.039 192.205C112.172 191.307 113.559 190.857 115.199 190.857C116.908 190.857 118.266 191.287 119.271 192.146C120.277 192.996 120.795 194.197 120.824 195.75V203.323C120.824 205.062 120.961 206.243 121.234 206.868V207H120.326ZM113.793 206.517C115.277 206.517 116.552 206.185 117.616 205.521C118.69 204.856 119.496 203.924 120.033 202.723V198.958H116.371C114.105 198.958 112.372 199.407 111.171 200.306C110.194 201.038 109.706 201.951 109.706 203.045C109.706 204.012 110.092 204.832 110.863 205.506C111.635 206.18 112.611 206.517 113.793 206.517ZM126.859 198.841H132.104C132.104 196.458 132.748 194.534 134.037 193.069C135.336 191.595 137.001 190.857 139.032 190.857C140.36 190.857 141.552 191.185 142.606 191.839C143.661 192.493 144.481 193.421 145.067 194.622C145.663 195.823 145.966 197.176 145.976 198.68V199.383C145.976 200.906 145.688 202.269 145.111 203.47C144.535 204.671 143.715 205.608 142.65 206.282C141.596 206.956 140.399 207.293 139.062 207.293C137.753 207.293 136.571 206.976 135.517 206.341C134.472 205.696 133.651 204.793 133.056 203.631C132.46 202.459 132.143 201.126 132.104 199.632H126.859V207H126.068V191.15H126.859V198.841ZM132.895 199.383C132.895 200.701 133.153 201.912 133.671 203.016C134.198 204.109 134.926 204.964 135.854 205.579C136.791 206.194 137.86 206.502 139.062 206.502C140.868 206.502 142.338 205.823 143.471 204.466C144.613 203.108 145.185 201.36 145.185 199.222V198.768C145.185 197.469 144.921 196.268 144.394 195.164C143.866 194.061 143.134 193.201 142.196 192.586C141.269 191.961 140.214 191.648 139.032 191.648C137.226 191.648 135.751 192.337 134.608 193.714C133.466 195.091 132.895 196.824 132.895 198.914V199.383ZM168.021 191.15H168.827V207H168.021V192.557L158.222 207H157.431V191.15H158.222V205.594L168.021 191.15ZM185.263 191.15V207H184.457V191.956H176.869L176.562 199.368C176.405 202.19 176.024 204.163 175.419 205.286C174.823 206.409 173.866 206.98 172.548 207H171.991V206.224H172.65C173.646 206.185 174.374 205.662 174.833 204.656C175.302 203.65 175.609 201.971 175.756 199.617L176.107 191.15H185.263ZM201.698 191.15V207H200.893V191.956H193.305L192.997 199.368C192.841 202.19 192.46 204.163 191.854 205.286C191.259 206.409 190.302 206.98 188.983 207H188.427V206.224H189.086C190.082 206.185 190.81 205.662 191.269 204.656C191.737 203.65 192.045 201.971 192.191 199.617L192.543 191.15H201.698ZM207.66 198.841H212.904C212.904 196.458 213.549 194.534 214.838 193.069C216.137 191.595 217.802 190.857 219.833 190.857C221.161 190.857 222.353 191.185 223.407 191.839C224.462 192.493 225.282 193.421 225.868 194.622C226.464 195.823 226.767 197.176 226.776 198.68V199.383C226.776 200.906 226.488 202.269 225.912 203.47C225.336 204.671 224.516 205.608 223.451 206.282C222.396 206.956 221.2 207.293 219.862 207.293C218.554 207.293 217.372 206.976 216.317 206.341C215.272 205.696 214.452 204.793 213.856 203.631C213.261 202.459 212.943 201.126 212.904 199.632H207.66V207H206.869V191.15H207.66V198.841ZM213.695 199.383C213.695 200.701 213.954 201.912 214.472 203.016C214.999 204.109 215.727 204.964 216.654 205.579C217.592 206.194 218.661 206.502 219.862 206.502C221.669 206.502 223.139 205.823 224.271 204.466C225.414 203.108 225.985 201.36 225.985 199.222V198.768C225.985 197.469 225.722 196.268 225.194 195.164C224.667 194.061 223.935 193.201 222.997 192.586C222.069 191.961 221.015 191.648 219.833 191.648C218.026 191.648 216.552 192.337 215.409 193.714C214.267 195.091 213.695 196.824 213.695 198.914V199.383ZM236.43 206.502C237.865 206.502 239.047 206.121 239.975 205.359C240.912 204.598 241.425 203.543 241.513 202.195H242.304C242.226 203.729 241.635 204.964 240.531 205.901C239.428 206.829 238.061 207.293 236.43 207.293C234.447 207.293 232.87 206.575 231.698 205.14C230.536 203.704 229.955 201.756 229.955 199.295V198.768C229.955 196.365 230.536 194.446 231.698 193.011C232.87 191.575 234.438 190.857 236.4 190.857C238.08 190.857 239.467 191.36 240.561 192.366C241.654 193.372 242.235 194.71 242.304 196.38H241.513C241.444 194.954 240.941 193.812 240.004 192.952C239.076 192.083 237.875 191.648 236.4 191.648C234.633 191.648 233.246 192.288 232.24 193.567C231.244 194.837 230.746 196.604 230.746 198.87V199.383C230.746 201.6 231.249 203.343 232.255 204.612C233.271 205.872 234.662 206.502 236.43 206.502ZM257.274 191.956H251.049V207H250.258V191.956H244.354V191.15H257.274V191.956ZM272.494 199.222C272.494 201.692 271.962 203.655 270.897 205.11C269.833 206.565 268.383 207.293 266.547 207.293C265.346 207.293 264.276 207.049 263.339 206.561C262.401 206.072 261.669 205.398 261.142 204.539V213.094H260.351V191.15H261.142V193.978C261.688 192.972 262.426 192.2 263.354 191.663C264.281 191.126 265.336 190.857 266.518 190.857C268.373 190.857 269.833 191.57 270.897 192.996C271.962 194.412 272.494 196.404 272.494 198.973V199.222ZM271.688 198.914C271.688 196.639 271.234 194.861 270.326 193.582C269.428 192.293 268.163 191.648 266.532 191.648C265.204 191.648 264.076 191.995 263.148 192.688C262.221 193.372 261.552 194.358 261.142 195.647V203.06C261.552 204.153 262.221 205.003 263.148 205.608C264.086 206.204 265.224 206.502 266.562 206.502C268.183 206.502 269.442 205.857 270.341 204.568C271.239 203.279 271.688 201.395 271.688 198.914ZM287.055 207C286.859 206.326 286.762 205.359 286.762 204.1C286.137 205.115 285.282 205.901 284.198 206.458C283.114 207.015 281.889 207.293 280.521 207.293C279.057 207.293 277.875 206.897 276.977 206.106C276.088 205.306 275.644 204.266 275.644 202.986C275.644 201.531 276.298 200.369 277.606 199.5C278.925 198.621 280.673 198.172 282.851 198.152H286.762V195.838C286.762 194.51 286.342 193.479 285.502 192.747C284.672 192.015 283.48 191.648 281.928 191.648C280.482 191.648 279.276 192.02 278.31 192.762C277.343 193.504 276.859 194.422 276.859 195.516L276.068 195.486C276.068 194.197 276.635 193.104 277.768 192.205C278.9 191.307 280.287 190.857 281.928 190.857C283.637 190.857 284.994 191.287 286 192.146C287.006 192.996 287.523 194.197 287.553 195.75V203.323C287.553 205.062 287.689 206.243 287.963 206.868V207H287.055ZM280.521 206.517C282.006 206.517 283.28 206.185 284.345 205.521C285.419 204.856 286.225 203.924 286.762 202.723V198.958H283.1C280.834 198.958 279.101 199.407 277.899 200.306C276.923 201.038 276.435 201.951 276.435 203.045C276.435 204.012 276.82 204.832 277.592 205.506C278.363 206.18 279.34 206.517 280.521 206.517ZM292.665 191.15H293.456V206.209H303.256V191.15H304.062V206.209H305.395V211.702H304.604V207H292.665V191.15ZM319.662 191.15H320.468V207H319.662V192.557L309.862 207H309.071V191.15H309.862V205.594L319.662 191.15ZM326.43 198.841H331.674C331.674 196.458 332.318 194.534 333.607 193.069C334.906 191.595 336.571 190.857 338.603 190.857C339.931 190.857 341.122 191.185 342.177 191.839C343.231 192.493 344.052 193.421 344.638 194.622C345.233 195.823 345.536 197.176 345.546 198.68V199.383C345.546 200.906 345.258 202.269 344.682 203.47C344.105 204.671 343.285 205.608 342.221 206.282C341.166 206.956 339.97 207.293 338.632 207.293C337.323 207.293 336.142 206.976 335.087 206.341C334.042 205.696 333.222 204.793 332.626 203.631C332.03 202.459 331.713 201.126 331.674 199.632H326.43V207H325.639V191.15H326.43V198.841ZM332.465 199.383C332.465 200.701 332.724 201.912 333.241 203.016C333.769 204.109 334.496 204.964 335.424 205.579C336.361 206.194 337.431 206.502 338.632 206.502C340.438 206.502 341.908 205.823 343.041 204.466C344.184 203.108 344.755 201.36 344.755 199.222V198.768C344.755 197.469 344.491 196.268 343.964 195.164C343.437 194.061 342.704 193.201 341.767 192.586C340.839 191.961 339.784 191.648 338.603 191.648C336.796 191.648 335.321 192.337 334.179 193.714C333.036 195.091 332.465 196.824 332.465 198.914V199.383ZM367.592 191.15H368.397V207H367.592V192.557L357.792 207H357.001V191.15H357.792V205.594L367.592 191.15ZM384.833 191.15V207H384.027V191.956H376.439L376.132 199.368C375.976 202.19 375.595 204.163 374.989 205.286C374.394 206.409 373.437 206.98 372.118 207H371.562V206.224H372.221C373.217 206.185 373.944 205.662 374.403 204.656C374.872 203.65 375.18 201.971 375.326 199.617L375.678 191.15H384.833ZM400.463 191.15H401.269V207H400.463V192.557L390.663 207H389.872V191.15H390.663V205.594L400.463 191.15ZM423.725 207C423.529 206.326 423.432 205.359 423.432 204.1C422.807 205.115 421.952 205.901 420.868 206.458C419.784 207.015 418.559 207.293 417.191 207.293C415.727 207.293 414.545 206.897 413.646 206.106C412.758 205.306 412.313 204.266 412.313 202.986C412.313 201.531 412.968 200.369 414.276 199.5C415.595 198.621 417.343 198.172 419.521 198.152H423.432V195.838C423.432 194.51 423.012 193.479 422.172 192.747C421.342 192.015 420.15 191.648 418.598 191.648C417.152 191.648 415.946 192.02 414.979 192.762C414.013 193.504 413.529 194.422 413.529 195.516L412.738 195.486C412.738 194.197 413.305 193.104 414.438 192.205C415.57 191.307 416.957 190.857 418.598 190.857C420.307 190.857 421.664 191.287 422.67 192.146C423.676 192.996 424.193 194.197 424.223 195.75V203.323C424.223 205.062 424.359 206.243 424.633 206.868V207H423.725ZM417.191 206.517C418.676 206.517 419.95 206.185 421.015 205.521C422.089 204.856 422.895 203.924 423.432 202.723V198.958H419.77C417.504 198.958 415.771 199.407 414.569 200.306C413.593 201.038 413.104 201.951 413.104 203.045C413.104 204.012 413.49 204.832 414.262 205.506C415.033 206.18 416.01 206.517 417.191 206.517ZM440.731 207H439.926V199.251H430.126V207H429.335V191.15H430.126V198.46H439.926V191.15H440.731V207ZM456.361 191.15H457.167V207H456.361V192.557L446.562 207H445.771V191.15H446.562V205.594L456.361 191.15ZM470.629 205.799L477.836 191.15H478.788V207H477.982V192.674L470.937 207H470.321L463.129 192.322V207H462.338V191.15H463.422L470.629 205.799ZM494.066 207C493.871 206.326 493.773 205.359 493.773 204.1C493.148 205.115 492.294 205.901 491.21 206.458C490.126 207.015 488.9 207.293 487.533 207.293C486.068 207.293 484.887 206.897 483.988 206.106C483.1 205.306 482.655 204.266 482.655 202.986C482.655 201.531 483.31 200.369 484.618 199.5C485.937 198.621 487.685 198.172 489.862 198.152H493.773V195.838C493.773 194.51 493.354 193.479 492.514 192.747C491.684 192.015 490.492 191.648 488.939 191.648C487.494 191.648 486.288 192.02 485.321 192.762C484.354 193.504 483.871 194.422 483.871 195.516L483.08 195.486C483.08 194.197 483.646 193.104 484.779 192.205C485.912 191.307 487.299 190.857 488.939 190.857C490.648 190.857 492.006 191.287 493.012 192.146C494.018 192.996 494.535 194.197 494.564 195.75V203.323C494.564 205.062 494.701 206.243 494.975 206.868V207H494.066ZM487.533 206.517C489.018 206.517 490.292 206.185 491.356 205.521C492.431 204.856 493.236 203.924 493.773 202.723V198.958H490.111C487.846 198.958 486.112 199.407 484.911 200.306C483.935 201.038 483.446 201.951 483.446 203.045C483.446 204.012 483.832 204.832 484.604 205.506C485.375 206.18 486.352 206.517 487.533 206.517ZM499.677 191.15H500.468V206.209H510.268V191.15H511.073V206.209H512.406V211.702H511.615V207H499.677V191.15ZM526.674 191.15H527.479V207H526.674V192.557L516.874 207H516.083V191.15H516.874V205.594L526.674 191.15ZM533.441 198.841H538.686C538.686 196.458 539.33 194.534 540.619 193.069C541.918 191.595 543.583 190.857 545.614 190.857C546.942 190.857 548.134 191.185 549.188 191.839C550.243 192.493 551.063 193.421 551.649 194.622C552.245 195.823 552.548 197.176 552.558 198.68V199.383C552.558 200.906 552.27 202.269 551.693 203.47C551.117 204.671 550.297 205.608 549.232 206.282C548.178 206.956 546.981 207.293 545.644 207.293C544.335 207.293 543.153 206.976 542.099 206.341C541.054 205.696 540.233 204.793 539.638 203.631C539.042 202.459 538.725 201.126 538.686 199.632H533.441V207H532.65V191.15H533.441V198.841ZM539.477 199.383C539.477 200.701 539.735 201.912 540.253 203.016C540.78 204.109 541.508 204.964 542.436 205.579C543.373 206.194 544.442 206.502 545.644 206.502C547.45 206.502 548.92 205.823 550.053 204.466C551.195 203.108 551.767 201.36 551.767 199.222V198.768C551.767 197.469 551.503 196.268 550.976 195.164C550.448 194.061 549.716 193.201 548.778 192.586C547.851 191.961 546.796 191.648 545.614 191.648C543.808 191.648 542.333 192.337 541.19 193.714C540.048 195.091 539.477 196.824 539.477 198.914V199.383ZM563.412 206.209L563.969 205.462C565.404 203.499 566.239 200.652 566.474 196.922L566.781 191.15H575.292V206.209H576.552V211.658H575.761V207H563.002V211.658H562.357V206.209H563.412ZM564.379 206.209H574.501V191.941H567.528L567.25 197.186C566.977 201.16 566.02 204.168 564.379 206.209ZM591.698 191.15V207H590.893V191.956H583.305L582.997 199.368C582.841 202.19 582.46 204.163 581.854 205.286C581.259 206.409 580.302 206.98 578.983 207H578.427V206.224H579.086C580.082 206.185 580.81 205.662 581.269 204.656C581.737 203.65 582.045 201.971 582.191 199.617L582.543 191.15H591.698ZM607.753 191.15V207H606.962V200.408H601.161L597.191 207H596.254L600.253 200.335C599.11 200.149 598.207 199.651 597.543 198.841C596.879 198.03 596.547 197.01 596.547 195.779C596.547 194.402 597.011 193.294 597.938 192.454C598.876 191.614 600.146 191.18 601.747 191.15H607.753ZM597.338 195.809C597.338 196.951 597.68 197.864 598.363 198.548C599.057 199.231 599.989 199.583 601.161 199.603H606.962V191.956H601.894C600.468 191.956 599.35 192.298 598.539 192.981C597.738 193.665 597.338 194.607 597.338 195.809ZM620.468 207V185.672H626.078C628.373 185.672 630.106 186.141 631.278 187.078C632.46 188.006 633.051 189.358 633.051 191.136C633.051 192.425 632.724 193.494 632.069 194.344C631.415 195.193 630.492 195.735 629.301 195.97C630.648 196.146 631.771 196.731 632.67 197.728C633.568 198.714 634.018 199.847 634.018 201.126C634.018 202.942 633.427 204.378 632.245 205.433C631.073 206.478 629.438 207 627.338 207H620.468ZM621.259 196.468V206.209H627.426C629.232 206.209 630.648 205.765 631.674 204.876C632.709 203.978 633.227 202.737 633.227 201.155C633.227 199.808 632.729 198.699 631.732 197.83C630.736 196.951 629.403 196.497 627.733 196.468H621.259ZM621.259 195.677H626.371C628.314 195.677 629.779 195.306 630.766 194.563C631.752 193.812 632.245 192.649 632.245 191.077C632.245 188.05 630.248 186.512 626.254 186.463H621.259V195.677ZM648.402 207C648.207 206.326 648.109 205.359 648.109 204.1C647.484 205.115 646.63 205.901 645.546 206.458C644.462 207.015 643.236 207.293 641.869 207.293C640.404 207.293 639.223 206.897 638.324 206.106C637.436 205.306 636.991 204.266 636.991 202.986C636.991 201.531 637.646 200.369 638.954 199.5C640.272 198.621 642.021 198.172 644.198 198.152H648.109V195.838C648.109 194.51 647.689 193.479 646.85 192.747C646.02 192.015 644.828 191.648 643.275 191.648C641.83 191.648 640.624 192.02 639.657 192.762C638.69 193.504 638.207 194.422 638.207 195.516L637.416 195.486C637.416 194.197 637.982 193.104 639.115 192.205C640.248 191.307 641.635 190.857 643.275 190.857C644.984 190.857 646.342 191.287 647.348 192.146C648.354 192.996 648.871 194.197 648.9 195.75V203.323C648.9 205.062 649.037 206.243 649.311 206.868V207H648.402ZM641.869 206.517C643.354 206.517 644.628 206.185 645.692 205.521C646.767 204.856 647.572 203.924 648.109 202.723V198.958H644.447C642.182 198.958 640.448 199.407 639.247 200.306C638.271 201.038 637.782 201.951 637.782 203.045C637.782 204.012 638.168 204.832 638.939 205.506C639.711 206.18 640.688 206.517 641.869 206.517ZM659.389 206.502C660.824 206.502 662.006 206.121 662.934 205.359C663.871 204.598 664.384 203.543 664.472 202.195H665.263C665.185 203.729 664.594 204.964 663.49 205.901C662.387 206.829 661.02 207.293 659.389 207.293C657.406 207.293 655.829 206.575 654.657 205.14C653.495 203.704 652.914 201.756 652.914 199.295V198.768C652.914 196.365 653.495 194.446 654.657 193.011C655.829 191.575 657.396 190.857 659.359 190.857C661.039 190.857 662.426 191.36 663.52 192.366C664.613 193.372 665.194 194.71 665.263 196.38H664.472C664.403 194.954 663.9 193.812 662.963 192.952C662.035 192.083 660.834 191.648 659.359 191.648C657.592 191.648 656.205 192.288 655.199 193.567C654.203 194.837 653.705 196.604 653.705 198.87V199.383C653.705 201.6 654.208 203.343 655.214 204.612C656.229 205.872 657.621 206.502 659.389 206.502Z" fill="black"/>
</svg>
