<svg width="400" height="407" viewBox="0 0 400 407" fill="none" xmlns="http://www.w3.org/2000/svg">
<path d="M74.6914 359.804C81.8776 358.593 83.5035 352.33 89.9622 344.273C100.67 330.896 94.3009 338.639 101.46 329.55C108.152 321.081 110.21 310.799 112.94 308.394C114.863 306.698 121.438 300.885 125.588 303.774C127.933 305.406 128.993 309.453 128.184 312.656C127.286 316.352 118.923 322.705 108.152 338.19C101.433 347.844 100.966 350.24 92.2079 361.006C91.112 362.343 87.7165 364.963 88.2106 366.712C88.8034 368.901 94.804 368.435 102.359 367.798C112.24 366.972 115.168 365.645 117.486 368.085C119.803 370.525 120.396 375.837 118.6 378.179C117.081 380.152 114.62 379.13 105.188 377.712C92.9984 375.918 92.7649 376.94 88.3633 375.146C83.1981 373.038 82.3178 371.091 78.9133 371.45C77.5659 371.584 75.9669 372.078 68.8615 378.026C62.0974 383.678 60.7769 385.58 56.555 387.653C50.7521 390.542 48.4165 389.349 47.8686 389.044C46.1349 388.066 44.1946 385.984 44.2754 383.436C44.3832 378.95 50.6083 376.034 51.1563 375.792C53.7523 374.617 54.5069 375.361 57.8036 373.998C60.4985 372.912 63.7413 370.911 63.5796 370.095C63.4179 369.278 58.9444 370.418 48.0931 371.737C34.4033 373.387 40.5206 371.53 33.6038 372.553C30.6125 373.002 27.9805 373.567 26.166 371.701C24.7557 370.238 23.9382 367.385 24.7647 365.51C25.3396 364.218 26.2558 364.371 27.4595 362.531C28.6632 360.692 28.3129 359.84 28.9686 358.853C30.5586 356.565 35.077 357.83 36.6669 358.27C48.7309 361.598 54.7674 363.267 58.621 362.756C60.732 362.478 61.6572 362.029 69.122 360.71C72.1312 360.199 74.1254 359.894 74.6914 359.804Z" fill="#948D8D"/>
<path d="M135.987 282.436C140.951 288.618 136.352 298.134 134.688 301.576C132.814 305.46 129.989 311.3 123.717 312.525C117.445 313.751 111.923 309.714 110.414 308.641C102.935 303.307 97.2669 291.943 102.661 283.905C109.39 273.83 129.687 274.605 135.987 282.436Z" fill="black"/>
<path d="M48.6571 381.539C46.4637 380.173 42.9523 382.948 41.3554 384.182C36.1316 388.305 34.2075 395.132 34.2075 395.132C36.1024 392.558 38.6946 390.479 41.7306 389.097C46.0212 387.15 49.0131 388.164 50.004 386.111C50.3114 385.314 50.3473 384.45 50.1068 383.633C49.8663 382.817 49.3608 382.086 48.6571 381.539Z" fill="#3F3F3F"/>
<path d="M27.7037 360.753C26.0855 359.388 22.7354 360.982 20.435 362.074C18.1345 363.167 15.939 364.731 16.0615 365.071C16.1839 365.41 18.7905 363.595 22.5342 363.595C25.7094 363.595 27.3276 364.916 28.1848 364.052C28.937 363.366 28.6834 361.565 27.7037 360.753Z" fill="#3F3F3F"/>
<path d="M28.6074 366.418C28.2767 364.626 22.1766 365.137 19.7512 365.334C15.9662 365.648 13.1182 365.916 10.1784 368.085C8.16279 369.727 6.58637 371.821 5.5849 374.189C5.5849 374.189 10.1784 368.856 15.5987 369.044C18.8876 369.161 19.8063 371.437 23.0218 370.837C26.0259 370.299 28.8555 367.691 28.6074 366.418Z" fill="#3F3F3F"/>
<path d="M116.006 371.425C118.414 368.888 122.875 370.367 125.073 371.09C132.78 373.67 136.83 381.17 136.83 381.17C134.252 379.038 131.162 377.53 127.828 376.775C125.658 376.125 123.372 375.894 121.105 376.095C117.566 376.491 115.851 377.901 114.948 376.955C114.045 376.009 114.52 373.008 116.006 371.425Z" fill="#3F3F3F"/>
<path d="M183.767 370.924C190.507 369.726 198.604 355.035 198.604 355.035C198.604 355.035 203.906 344.152 204.805 339.618C205.703 335.083 202.891 318.759 205.524 316.328C207.384 314.596 216.02 309.255 219.741 312.257C221.835 313.952 221.367 317.507 220.469 320.8C219.444 324.599 216.533 341.468 214.097 347.245C211.662 353.021 208.561 361.274 199.934 372.302C198.856 373.671 195.62 376.347 195.98 378.152C196.429 380.41 202.01 379.965 209.038 379.376C218.204 378.587 221.017 377.236 223.057 379.766C225.097 382.296 225.403 387.783 223.632 390.177C222.131 392.199 219.894 391.129 211.221 389.606C199.997 387.638 199.736 388.699 195.737 386.84C191.046 384.636 190.345 382.623 187.146 382.967C185.879 383.103 184.387 383.593 177.521 389.669C170.996 395.455 169.657 397.396 165.685 399.509C160.176 402.438 158.064 401.205 157.597 400.878C156.629 400.262 155.835 399.404 155.292 398.387C154.749 397.37 154.475 396.229 154.497 395.074C154.793 390.44 160.689 387.493 161.21 387.239C163.672 386.06 164.337 386.821 167.456 385.479C169.999 384.382 173.099 382.341 172.983 381.507C172.866 380.673 168.669 381.806 158.559 383.076C145.789 384.69 151.54 382.822 145.079 383.829C142.275 384.264 139.812 384.826 138.222 382.922C137.544 382.023 137.096 380.969 136.918 379.854C136.739 378.739 136.835 377.597 137.197 376.528C137.781 375.204 138.626 375.358 139.794 373.481C140.963 371.604 140.693 370.67 141.358 369.699C142.931 367.359 147.065 368.693 148.547 369.155C159.583 372.674 165.101 374.433 168.705 373.934C170.664 373.662 171.545 373.209 178.527 371.903C181.349 371.323 183.21 371.023 183.767 370.924Z" fill="#948D8D"/>
<path d="M227.207 287.553C231.512 293.862 226.843 303.551 225.15 307.057C223.248 311.005 220.381 316.971 214.511 318.134C208.641 319.297 203.762 315.196 202.425 314.096C195.762 308.599 191.048 296.972 196.381 288.815C203.062 278.595 221.755 279.523 227.207 287.553Z" fill="black"/>
<path d="M158.583 393.42C156.753 392.029 153.487 394.793 152.023 396.028C147.22 400.14 145.208 407 145.208 407C146.948 404.477 149.326 402.409 152.124 400.984C155.994 399.045 158.583 400.114 159.552 398.028C159.872 397.252 159.951 396.405 159.779 395.588C159.607 394.771 159.192 394.019 158.583 393.42V393.42Z" fill="#3F3F3F"/>
<path d="M227.305 281.964C232.231 289.687 237.426 293.898 290.417 319.595C306.424 327.354 325.409 336.395 349.931 341.994C357.728 343.786 371.07 346.34 385.524 340.803C391.922 338.348 398.678 335.758 399.279 331.538C400.822 320.679 359.621 312.535 312.848 287.94C254.842 257.432 232.859 225.078 221.33 232.98C212.402 239.1 216.377 264.806 227.305 281.964Z" fill="black"/>
<path d="M140.305 370.622C138.949 369.031 135.912 370.848 133.832 372.103C131.752 373.359 129.73 375.142 129.854 375.535C129.979 375.928 132.351 373.861 135.629 373.903C138.433 373.903 139.789 375.468 140.621 374.472C141.253 373.652 141.12 371.568 140.305 370.622Z" fill="#3F3F3F"/>
<path d="M15.177 168.2C11.8576 184.7 14.9431 202.28 29.399 228.159C39.9689 247.083 54.5867 267.763 72.1282 281.793C102.713 306.267 136.177 298.959 157.308 299.761C187.038 300.887 230.352 291.164 236.919 280.838C243.485 270.511 237.117 236.684 219.827 197.486C206.334 166.849 191.041 148.638 183.395 140.266C170.18 125.786 162.705 117.586 149.661 111.882C117.034 97.5904 82.761 113.504 67.8013 120.442C49.0095 129.174 20.4214 142.438 15.177 168.2Z" fill="#EFEFEF"/>
<path d="M141.011 377.039C140.79 375.107 135.336 375.59 133.137 375.783C129.741 376.092 127.178 376.372 124.456 378.682C122.552 380.519 121.054 382.801 120.075 385.359C120.075 385.359 124.412 379.561 129.271 379.783C132.206 379.938 132.924 382.44 135.833 381.832C138.528 381.32 141.18 378.469 141.011 377.039Z" fill="#3F3F3F"/>
<path d="M222.193 382.655C224.516 379.984 228.52 381.578 230.527 382.353C237.487 385.095 240.849 393.038 240.849 393.038C238.627 390.803 235.846 389.185 232.787 388.345C230.826 387.635 228.728 387.373 226.649 387.579C223.377 387.971 221.741 389.44 220.955 388.416C220.169 387.392 220.756 384.303 222.193 382.655Z" fill="#3F3F3F"/>
<path d="M196.719 155.065C196.719 155.065 217.042 184.978 220.162 189.49C223.281 194.002 230.459 204.081 251.485 228.292C274.071 254.334 282.736 264.585 282.736 264.585C282.736 264.585 258.509 250.418 227.636 228.066C197.242 206.067 194.023 202.529 182.554 197.882C164.864 190.717 159.743 193.948 149.013 183.95C143.116 178.454 136.084 169.512 128.275 171.777C124.615 172.86 124.362 175.386 121.396 176.099C113.903 177.985 107.682 164.016 94.5719 144.381C78.1801 119.837 72.8694 119.115 65.4579 100.725C60.7784 89.0842 58.6415 73.3019 58.6415 73.3019C58.6415 73.3019 61.4997 76.3609 72.8063 94.1104C81.2908 107.42 83.626 110.822 87.6834 114.414C93.5441 119.593 94.5539 117.734 99.1884 122.282C107.592 130.53 105.996 138.407 112.56 146.899C118.096 154.063 120.386 149.958 142.314 159.063C155.46 164.531 157.038 167.003 162.394 165.902C171.41 164.098 173.141 155.796 180.426 156.743C188.992 157.853 193.753 170.162 196.656 167.644C199.406 165.298 196.719 155.065 196.719 155.065Z" fill="black"/>
<path d="M128.955 124.939C116.389 130.056 124.88 140.372 119.082 165.256C115.689 179.841 111.129 199.418 96.3453 214.897C92.0727 219.365 74.731 237.533 54.1579 234.149C39.0961 231.675 30.1829 218.949 23.3432 209.184C7.72487 186.881 5.2026 164.11 2.69829 138.784C-0.443326 107.041 -2.13979 89.9192 5.08592 67.7794C8.425 57.5534 19.5553 23.4546 51.7613 7.91251C58.619 4.60011 78.6894 -5.09339 99.0381 3.39971C101.471 4.41058 119.252 11.8206 122.672 27.1641C125.867 41.4517 112.933 46.2984 113.696 64.467C114.288 78.4387 122.627 91.968 132.249 99.6669C139.888 105.777 143.829 104.613 154.986 113.205C162.93 119.334 172.516 128.847 170.846 131.563C168.225 135.814 141.522 119.83 128.955 124.939Z" fill="black"/>
<path d="M121.935 29.5733C124.423 29.9451 128.743 32.4485 133.438 34.7949C135.457 35.7946 137.278 38.2484 135.241 40.4709C131.409 44.6019 122.535 37.5792 109.567 41.1566C105.436 42.3051 101.745 44.2879 98.6183 42.6768C97.0783 41.8506 95.6415 38.5458 95.6415 38.5458C99.8992 37.2768 104.035 35.7103 108.009 33.8613C113.474 31.0687 114.892 28.4909 121.935 29.5733Z" fill="#FC7272"/>
<path d="M90.0565 41.5539C90.0565 41.5539 98.8287 46.8428 104.209 47.2312C110.507 47.6843 117.579 47.7213 129.203 45.2987C136.698 43.736 150.094 36.3019 150.094 36.3019C150.094 36.3019 139.397 36.4036 118.343 38.2806C94.6181 40.3796 90.0565 41.5539 90.0565 41.5539Z" fill="#948D8D"/>
<path d="M51.6587 44.493C57.8074 45.0704 64.0098 44.3014 69.8201 42.2412C78.7016 38.8412 82.3773 33.9906 82.3773 33.9906C82.3773 33.9906 78.4662 6.39954 59.2456 12.8434C40.0249 19.2872 51.6587 44.493 51.6587 44.493Z" fill="white"/>
<path d="M72.6038 44.5985C72.6038 44.5985 82.3698 43.1982 88.0817 40.1671C97.0009 35.4255 101.136 34.8494 108.244 29.9217C110.947 28.0098 113.328 25.692 115.299 23.053C115.299 23.053 107.19 27.121 99.7487 25.3839C98.8478 25.18 95.0008 24.276 94.3431 21.6881C93.7215 19.2508 96.3162 16.7249 96.8747 16.1842C100.478 12.6834 105.434 12.515 116.614 11.3983C133.101 9.74981 132.831 9.04964 139.957 9.07623C145.579 9.07623 151.579 9.55482 157.84 11.9567C160.107 12.9884 162.203 14.3509 164.057 15.9981C164.057 15.9981 153.894 19.1799 141.903 22.1135C136.11 23.5227 123.056 28.9645 97.172 39.786C83.0275 45.6975 72.6038 44.5985 72.6038 44.5985Z" fill="#948D8D"/>
<path d="M64.629 41.0923C70.1348 39.5125 73.0364 32.7892 71.1099 26.0753C69.1835 19.3615 63.1585 15.1995 57.6528 16.7793C52.1471 18.3591 49.2455 25.0824 51.1719 31.7962C53.0983 38.5101 59.1233 42.6721 64.629 41.0923Z" fill="#F02E56"/>
<path d="M63.1925 36.0863C65.3939 35.4546 66.2598 31.7412 65.1267 27.7922C63.9936 23.8432 61.2905 21.1539 59.0892 21.7855C56.8878 22.4172 56.0218 26.1305 57.155 30.0796C58.2881 34.0286 60.9912 36.7179 63.1925 36.0863Z" fill="black"/>
<path opacity="0.53" d="M55.9749 25.6512C57.3979 25.2429 58.2372 23.8164 57.8494 22.465C57.4617 21.1136 55.9938 20.3491 54.5708 20.7574C53.1478 21.1657 52.3085 22.5922 52.6963 23.9436C53.084 25.295 54.5519 26.0595 55.9749 25.6512Z" fill="white"/>
<path opacity="0.05" d="M147.242 268.455C102.285 268.455 61.9142 255.903 34.2075 235.962C44.2778 252.603 57.2919 269.746 72.505 281.904C103.021 306.256 136.409 298.94 157.492 299.783C187.155 300.904 230.371 291.229 236.923 280.954C240.262 275.727 240.244 264.448 237.175 249.51C212.035 261.408 180.926 268.455 147.242 268.455Z" fill="black"/>
</svg>
