<svg xmlns="http://www.w3.org/2000/svg" viewBox="0 0 80.01 80"><defs><style>.cls-1{fill:#ef2c54;}.cls-2{fill:#feecf0;}</style></defs><title>Ae</title><g id="Слой_2" data-name="Слой 2"><path class="cls-1" d="M31.26,22.28,22,22.11,10.56,57.19H17.9l2.58-8.31H32.86l2.87,8.37h7.85ZM22.37,42.17l4.36-14L31,42.29Z" transform="translate(0.01 0)"/><path class="cls-1" d="M69.44,39.19a11,11,0,0,0-11.41-9c-10,0-12.73,9.06-12.73,13.87s1.84,13.51,12.33,13.82c7.74.23,9.4-2.12,9.4-2.12V50.54a22.31,22.31,0,0,1-7.8,1.15c-5.9-.23-6.53-6-6.53-6l16.74.17ZM52.58,40.85s1.09-4.76,5.33-4.76,4.53,4.76,4.53,4.76Z" transform="translate(0.01 0)"/></g><g id="Слой_8" data-name="Слой 8"><path class="cls-2" d="M66.67,3A10.34,10.34,0,0,1,77,13.33V66.67A10.34,10.34,0,0,1,66.67,77H13.32A10.34,10.34,0,0,1,3,66.67V13.33A10.34,10.34,0,0,1,13.32,3H66.67m0-3H13.32A13.33,13.33,0,0,0,0,13.33V66.67A13.33,13.33,0,0,0,13.32,80H66.67A13.33,13.33,0,0,0,80,66.67V13.33A13.33,13.33,0,0,0,66.67,0Z" transform="translate(0.01 0)"/></g></svg>