<svg xmlns="http://www.w3.org/2000/svg" viewBox="0 0 80.01 80"><defs><style>.cls-1{fill:#ef2c54;}.cls-2{fill:#feecf0;}</style></defs><title>Ai</title><g id="Слой_3" data-name="Слой 3"><path class="cls-1" d="M38.46,22.28l-9.22-.18L17.77,57.19h7.34l2.58-8.32H40.07l2.87,8.37h7.85ZM29.58,42.17l4.36-14,4.24,14.16Z" transform="translate(0.01 0)"/><circle class="cls-1" cx="57.91" cy="23.17" r="4.33"/><rect class="cls-1" x="54.04" y="30.02" width="7.68" height="27.4"/></g><g id="Слой_8" data-name="Слой 8"><path class="cls-2" d="M66.67,3A10.34,10.34,0,0,1,77,13.33V66.67A10.34,10.34,0,0,1,66.67,77H13.32A10.34,10.34,0,0,1,3,66.67V13.33A10.34,10.34,0,0,1,13.32,3H66.67m0-3H13.32A13.33,13.33,0,0,0,0,13.33V66.67A13.33,13.33,0,0,0,13.32,80H66.67A13.33,13.33,0,0,0,80,66.67V13.33A13.33,13.33,0,0,0,66.67,0Z" transform="translate(0.01 0)"/></g></svg>