<svg xmlns="http://www.w3.org/2000/svg" viewBox="0 0 80.01 80"><defs><style>.cls-1{fill:#ef2c54;}.cls-2{fill:#feecf0;}</style></defs><title>Figma</title><g id="Слой_7" data-name="Слой 7"><circle class="cls-1" cx="47.18" cy="40.41" r="6.85"/><path class="cls-1" d="M40.32,33.55h9.46A7,7,0,0,0,54,27a6.85,6.85,0,0,0-4.93-6.77L32,20.37S26.79,21.75,26.79,27s5.5,6.48,5.5,6.48-5.56,1.6-5.56,6.88,5.56,6.82,5.56,6.82a7.37,7.37,0,0,0-5.56,7.56c0,6.42,7.74,6.14,7.74,6.14S40.2,59,40.2,55.68,40.32,33.55,40.32,33.55Z" transform="translate(0.01 0)"/></g><g id="Слой_8" data-name="Слой 8"><path class="cls-2" d="M66.67,3A10.34,10.34,0,0,1,77,13.33V66.67A10.34,10.34,0,0,1,66.67,77H13.32A10.34,10.34,0,0,1,3,66.67V13.33A10.34,10.34,0,0,1,13.32,3H66.67m0-3H13.32A13.33,13.33,0,0,0,0,13.33V66.67A13.33,13.33,0,0,0,13.32,80H66.67A13.33,13.33,0,0,0,80,66.67V13.33A13.33,13.33,0,0,0,66.67,0Z" transform="translate(0.01 0)"/></g></svg>