<svg xmlns="http://www.w3.org/2000/svg" viewBox="0 0 80.01 80"><defs><style>.cls-1{fill:#ef2c54;}.cls-2{fill:#feecf0;}</style></defs><title>Ps</title><g id="Слой_4" data-name="Слой 4"><path class="cls-1" d="M33.27,21.72H19s.12,35.42.12,35.48h7.05V45.68h7.16S44.5,44.93,44.5,33.87,33.27,21.72,33.27,21.72ZM31.55,39.66l-5.28-.12V28.08h5.22s5.5.11,5.5,5.67S31.55,39.66,31.55,39.66Z" transform="translate(0.01 0)"/><path class="cls-1" d="M66.57,37.6V31.18a10.77,10.77,0,0,0-2.63-1c-.81-.05-8.72,0-8.72,0s-6.93,1.09-6.93,8.09S59.06,48,59.06,48s1.38.86,1.38,1.78-.12,2-4.59,2a15.17,15.17,0,0,1-7.68-2.12v6.7a50.26,50.26,0,0,0,5.1,1.44l6.83.05s7.77-2.06,7.85-7.91c.11-8.14-11.7-10.66-11.7-10.66a1.65,1.65,0,0,1-1.14-1.55,2.08,2.08,0,0,1,1.83-1.83c.4.06,4.93,0,4.93,0Z" transform="translate(0.01 0)"/></g><g id="Слой_8" data-name="Слой 8"><path class="cls-2" d="M66.67,3A10.34,10.34,0,0,1,77,13.33V66.67A10.34,10.34,0,0,1,66.67,77H13.32A10.34,10.34,0,0,1,3,66.67V13.33A10.34,10.34,0,0,1,13.32,3H66.67m0-3H13.32A13.33,13.33,0,0,0,0,13.33V66.67A13.33,13.33,0,0,0,13.32,80H66.67A13.33,13.33,0,0,0,80,66.67V13.33A13.33,13.33,0,0,0,66.67,0Z" transform="translate(0.01 0)"/></g></svg>