<svg xmlns="http://www.w3.org/2000/svg" viewBox="0 0 80.01 80"><defs><style>.cls-1{fill:#ef2c54;}.cls-2{fill:#feecf0;}</style></defs><title>Painter</title><g id="Слой_5" data-name="Слой 5"><path class="cls-1" d="M63.85,17.64a.53.53,0,0,0-.69-.76C59.2,18.94,48.75,25,35.45,37.2,30.78,41.48,30,44.31,30,44.31a11.06,11.06,0,0,0,2,3.23c1,.84,2.35,2,3.74,2.12,1.91.16,6.24-4.31,7.72-5.88A198.3,198.3,0,0,0,63.85,17.64Z" transform="translate(0.01 0)"/><path class="cls-1" d="M13.18,60.81A.8.8,0,0,1,13,59.38a22.77,22.77,0,0,0,3.91-3.22c1.23-1.53,2.37-6.65,5.05-8.71a12,12,0,0,1,6.49-2.07,24.28,24.28,0,0,0,1.93,3.14,13.1,13.1,0,0,0,3.21,2s-.4,7.63-5.9,10.68C23.45,63.53,16.33,61.78,13.18,60.81Z" transform="translate(0.01 0)"/></g><g id="Слой_8" data-name="Слой 8"><path class="cls-2" d="M66.67,3A10.34,10.34,0,0,1,77,13.33V66.67A10.34,10.34,0,0,1,66.67,77H13.32A10.34,10.34,0,0,1,3,66.67V13.33A10.34,10.34,0,0,1,13.32,3H66.67m0-3H13.32A13.33,13.33,0,0,0,0,13.33V66.67A13.33,13.33,0,0,0,13.32,80H66.67A13.33,13.33,0,0,0,80,66.67V13.33A13.33,13.33,0,0,0,66.67,0Z" transform="translate(0.01 0)"/></g></svg>