<svg id="Layer_1" data-name="Layer 1" xmlns="http://www.w3.org/2000/svg" viewBox="0 0 511.99 511.99"><defs><style>.cls-1{fill:#feecf0;}.cls-2{fill:#ef2c54;}</style></defs><g id="Слой_8" data-name="Слой 8"><path class="cls-1" d="M426.69,19.2A66.16,66.16,0,0,1,492.8,85.31V426.68a66.16,66.16,0,0,1-66.11,66.11H85.26a66.17,66.17,0,0,1-66.05-66.11V85.31A66.17,66.17,0,0,1,85.26,19.2H426.69m0-19.2H85.26A85.32,85.32,0,0,0,0,85.31V426.68A85.32,85.32,0,0,0,85.26,512H426.69A85.3,85.3,0,0,0,512,426.68h0V85.31A85.3,85.3,0,0,0,426.69,0Z" transform="translate(-0.01)"/></g><path class="cls-2" d="M222.78,141.8H134V363.57h43.34v-72h49.53s64.66-8.94,64.66-73.6S222.78,141.8,222.78,141.8ZM212.16,252.69H177.92V182.5h34.89s33.59,4.71,33.59,36.75S212.16,252.69,212.16,252.69Z" transform="translate(-0.01)"/><path class="cls-2" d="M367,363.57H318.86V195.5h45.25v22.1s15.28-16.75,29.35-20.73a65.1,65.1,0,0,1,27.21-1.37v42.34s-21.1-.92-30.57,3.06-22.32,11.79-22.32,11.79Z" transform="translate(-0.01)"/></svg>